<?xml version="1.0" encoding="UTF-8"?>
<svg width="23px" height="23px" viewBox="0 0 23 23" version="1.1" xmlns="http://www.w3.org/2000/svg" xmlns:xlink="http://www.w3.org/1999/xlink">
    <!-- Generator: Sketch 59 (86127) - https://sketch.com -->
    <title>Group 9</title>
    <desc>Created with Sketch.</desc>
    <g id="EARN" stroke="none" stroke-width="1" fill="none" fill-rule="evenodd">
        <g id="Earn-Step-04-Copy" transform="translate(-964.000000, -614.000000)" fill-rule="nonzero">
            <g id="Group-9" transform="translate(964.000000, 614.000000)">
                <circle id="Oval-Copy-5" fill="#38F5CA" cx="11.5" cy="11.5" r="11.5"></circle>
                <g id="check" transform="translate(5.000000, 7.000000)" fill="#000000">
                    <g id="Group">
                        <path d="M12.3894177,0.215739263 C12.0524955,0.233221064 11.7356959,0.380666134 11.5063029,0.626759 L5.59197696,6.73564316 L2.367414,4.12445637 C2.00704437,3.83365384 1.51808694,3.75618426 1.08472724,3.92122967 C0.651367546,4.08627509 0.339443231,4.46876117 0.266453168,4.92460912 C0.193463104,5.38045707 0.370496219,5.84041273 0.730865852,6.13121526 L4.879014,9.48384684 C5.40127165,9.90602841 6.16143599,9.86051297 6.629014,9.37906421 L13.3697547,2.41590374 C13.7489127,2.03894063 13.8557291,1.46872251 13.6385084,0.981215375 C13.4212876,0.493708244 12.9248355,0.189469106 12.3894177,0.215739263 L12.3894177,0.215739263 Z" id="Path"></path>
                    </g>
                </g>
            </g>
        </g>
    </g>
</svg>