<?xml version="1.0" encoding="UTF-8"?>
<svg width="738px" height="174px" viewBox="0 0 738 174" version="1.1" xmlns="http://www.w3.org/2000/svg" xmlns:xlink="http://www.w3.org/1999/xlink">
    <!-- Generator: Sketch 54.1 (76490) - https://sketchapp.com -->
    <title>compound logo</title>
    <desc>Created with Sketch.</desc>
    <g id="Page-1" stroke="none" stroke-width="1" fill="none" fill-rule="evenodd">
        <g id="compound-logo" fill-rule="nonzero">
            <g id="compound">
                <path d="M0,170.399918 C1.39219454,166.632798 1.41720054,162.625788 2.03246446,158.726295 C3.11760858,151.851024 4.06260278,144.95321 5.03667373,138.061177 C5.92118831,131.802681 6.74289712,125.536092 7.63555319,119.278752 C8.4206253,113.772871 9.27548159,108.276239 10.0785813,102.77267 C10.3303859,101.047205 10.5443907,99.3142251 10.724085,97.5795112 C11.0061294,94.8459352 12.7489895,93.0372316 15.4571975,93.029717 C29.6908457,92.991566 43.9244938,92.9892539 58.1581419,93.0279829 C61.3792637,93.0366536 63.3873037,95.2754228 62.9371957,98.4737472 C62.1137422,104.324143 61.051278,110.142169 60.184791,115.986784 C59.3956481,121.311737 58.8036456,126.66617 57.9976383,131.988233 C57.0136812,138.482572 56.3065348,145.012171 55.1045021,151.482231 C54.1048437,156.862677 53.5907668,162.335031 52.9598014,167.777327 C52.7673134,169.435161 52.1572833,171.033456 52.3201131,172.745048 C52.3951311,173.532924 51.9368816,174.001718 51.0866775,173.988423 C50.8325468,173.984955 50.5784161,174.000562 50.3242853,173.999984 C33.5499112,173.980331 16.7755371,173.959521 0.000581534896,173.93929 C0,172.758921 0,171.579131 0,170.399918 Z" id="Path" fill="#4EE0CE"></path>
                <path d="M141.639804,0.00579900832 C156.656921,0.00405930582 171.674617,0.0017397025 186.692313,0 C189.638479,1.40741932 190.303593,2.89138555 189.887174,5.94920263 C188.90107,13.1857851 188.083269,20.4438239 187.147482,27.6867853 C186.265483,34.512798 185.305984,41.3283725 184.402007,48.1520656 C183.453497,55.3086217 182.53217,62.4686573 181.596383,69.6257934 C180.529309,77.7826785 179.472067,85.9413033 178.387063,94.0952889 C177.457061,101.084254 176.488308,108.06742 175.546737,115.054065 C174.224028,124.868886 172.892065,134.681968 171.600009,144.499689 C170.525994,152.655415 169.423062,160.80998 168.487854,168.983102 C167.919326,173.948213 168.051192,173.963871 163.147856,173.963871 C148.238313,173.963871 133.328771,173.931396 118.419807,173.999824 C116.274091,174.010263 115.73853,173.56026 116.107523,171.260373 C117.224915,164.301563 117.987772,157.285923 118.920088,150.296958 C120.206939,140.647408 121.546421,131.004817 122.817656,121.354107 C123.913648,113.030211 124.913633,104.694136 126.013674,96.3719795 C127.102725,88.135648 128.294725,79.9126542 129.386091,71.6763227 C130.323034,64.6026924 131.157607,57.5151444 132.079513,50.4391945 C132.969031,43.6137617 133.92506,36.7976073 134.829037,29.975074 C135.777547,22.8190977 136.695404,15.6590622 137.634083,8.5019261 C137.841136,6.92053653 137.992087,5.32406954 138.32985,3.76993531 C138.725448,1.94672709 139.730059,0.546846484 141.639804,0.00579900832 Z" id="Path" fill="#B0EEE6"></path>
                <path d="M84.0344542,173.96295 C76.1123321,173.96295 68.1896254,173.914186 60.2692572,173.999524 C58.4569497,174.018682 57.8033498,173.463111 58.0500575,171.68726 C58.651042,167.354159 59.2292266,163.016994 59.7483649,158.674025 C60.6551033,151.09284 61.8974108,143.558678 62.7404261,135.965302 C63.5729183,128.460167 64.9356566,121.014247 65.9862103,113.531172 C66.8251333,107.55284 67.5190717,101.55477 68.3252562,95.5717931 C69.0536869,90.1687694 69.9604252,84.7878059 70.5830405,79.3743326 C71.4190404,72.1054747 72.9220864,64.9271801 73.4464863,57.6165239 C73.6318094,55.0343116 74.0509785,52.4538409 74.5689477,49.9145882 C75.0781477,47.4200364 76.9243628,46.0255954 79.5358394,46.0209511 C93.6765146,45.9971492 107.816605,45.9878607 121.956696,46.0244343 C125.619311,46.0337228 127.525156,48.6141935 126.873895,52.3551503 C125.591249,59.7215377 124.627218,67.1430758 123.62928,74.5431342 C122.540142,82.6183528 121.488419,90.7057627 120.43728,98.7902699 C119.13885,108.776024 117.727588,118.747264 116.368942,128.725471 C115.167558,137.548417 114.012943,146.378329 112.758358,155.194888 C111.966205,160.761042 111.321374,166.345192 110.329282,171.889866 C109.990205,173.784727 109.35999,173.993719 107.800236,173.98443 C99.8781138,173.937987 91.9559917,173.96295 84.0344542,173.96295 Z" id="Path" fill="#84E8DB"></path>
            </g>
            <g id="ttt" transform="translate(219.000000, 63.000000)" fill="#000000">
                <path d="M145.799159,73.9431893 C141.438987,73.9431893 137.398995,73.9987517 133.365944,73.866791 C132.908668,73.8511641 132.145096,72.7954786 132.106917,72.1851604 C131.957674,69.8072635 132.042708,67.4146078 132.042708,65.0271612 C132.042708,50.9941836 132.081754,36.960338 132.000191,22.9264923 C131.988043,20.8550567 132.552913,20.0997554 134.675297,20.2291116 C137.484897,20.3984033 140.323998,20.4331298 143.128391,20.2291116 C145.424314,20.0632926 146.112397,20.9219052 145.821719,23.0619256 C145.689829,24.0325312 145.799159,25.036127 146.003068,26.195992 C149.837416,21.0391072 154.756384,18.7732032 161.146097,19.0275748 C167.584401,19.2828146 172.064315,22.1208376 174.569353,27.0589455 C176.526875,25.4259319 178.505222,23.673112 180.590295,22.0557254 C186.215568,17.6932092 198.455287,17.7774209 203.314384,23.7668735 C206.64113,27.8663365 207.805578,32.6742201 207.883671,37.7078258 C208.061548,49.2075054 207.952219,60.7106576 207.999942,72.2120734 C208.006016,73.5282077 207.536592,73.9961472 206.223768,73.9692342 C202.971644,73.9049902 199.71171,73.834669 196.46566,73.9918064 C194.514212,74.085568 193.990123,73.3814882 194.003139,71.525357 C194.069951,61.7593978 194.038714,51.9934386 194.027434,42.2283476 C194.025699,40.7099315 193.993594,39.1889109 193.905089,37.6739675 C193.529377,31.2035529 187.55182,28.184084 182.100086,31.7539679 C178.990264,33.7898088 177.267887,36.8405316 177.190662,40.4763958 C176.978945,50.5983016 176.998034,60.7254163 176.932957,70.8507947 C176.913,73.946662 176.922544,73.9475301 173.925523,73.9483983 C171.105511,73.9492665 168.279425,73.8338009 165.46809,73.9883338 C163.554821,74.0933814 162.987348,73.4743816 163.004702,71.557479 C163.091471,61.8653136 163.048954,52.1714119 163.03941,42.4775102 C163.037674,40.8870366 163.037674,39.2913541 162.924874,37.7060895 C162.463259,31.1853215 156.648829,28.2179423 151.09384,31.7426818 C146.647766,34.5642097 145.874649,39.1593934 145.826925,43.8969558 C145.73495,53.0100568 145.799159,62.1257623 145.798291,71.2405997 C145.799159,72.0254185 145.799159,72.8093692 145.799159,73.9431893 Z" id="Path"></path>
                <path d="M236.947236,24.8350786 C239.973993,22.0445516 242.85244,19.5456774 246.69622,18.6909849 C257.932694,16.1921107 267.131438,20.4682166 271.258675,31.5633591 C274.962043,41.5209676 274.862877,51.6750672 271.265695,61.6749697 C268.539069,69.2552993 261.610612,75.113027 253.11305,75.1606079 C246.912981,75.1958529 241.83533,73.3305085 237.859914,68.5363003 C237.740564,68.3926767 237.508007,68.3424525 237.072729,68.1151219 C237.024463,69.0411856 236.953379,69.8033599 236.952501,70.5655342 C236.942848,76.9484131 236.898092,83.3321733 236.977951,89.7141711 C236.99989,91.4579201 236.400507,92.0368201 234.6945,91.9769035 C231.701968,91.8729306 228.696273,91.8253498 225.709884,91.9892393 C223.525599,92.1090724 222.997299,91.2314706 223.00432,89.1846142 C223.063995,70.9893559 223.039423,52.7923353 223.039423,34.597077 C223.039423,30.2681035 223.118404,25.9373676 223.002564,21.6119186 C222.952543,19.7430497 223.630031,19.1932269 225.410631,19.2584302 C228.547963,19.3747389 231.695825,19.368571 234.834912,19.2716471 C236.43912,19.2214229 237.133282,19.7130914 236.96742,21.3881125 C236.856846,22.5274088 236.947236,23.6860899 236.947236,24.8350786 Z M259.630802,46.5495554 C259.566739,46.5460309 259.501799,46.5425064 259.436858,46.5389819 C259.436858,44.3388095 259.446511,42.1386371 259.435103,39.9384647 C259.401755,33.076253 256.060826,29.5173838 249.256985,29.0812263 C243.255247,28.6961741 238.239904,32.0849859 237.660705,37.7277188 C237.11222,43.0761555 236.950746,48.5717403 237.515027,53.906079 C238.510198,63.316508 244.871741,64.8267585 251.672072,63.7720503 C255.506198,63.17729 258.409217,60.7515493 258.976131,56.6040878 C259.430715,53.2857661 259.42896,49.9031222 259.630802,46.5495554 Z" id="Shape"></path>
                <path d="M518.946284,1.0262305 C518.946284,2.32891289 518.946284,3.12602415 518.946284,3.92313541 C518.946284,26.2299198 518.91201,48.537585 518.999891,70.8443694 C519.009558,73.1115123 518.380334,73.7351088 516.173657,73.6197258 C512.605712,73.4321184 509.021071,73.5686402 505.199152,73.5686402 C505.082271,71.6723081 504.974178,69.9116171 504.849388,67.8717169 C503.413422,69.1779224 502.294705,70.3097323 501.062621,71.3006165 C495.280091,75.952047 485.466486,76.2180443 479.224341,72.0933238 C473.176411,68.0963173 470.219236,62.1651048 468.935303,55.371603 C467.377183,47.122162 467.617097,38.8771249 470.790458,30.9562171 C473.261655,24.7924772 477.410489,20.0978882 484.024368,18.5380163 C491.563628,16.7597095 498.581758,17.7840635 503.926644,24.2146816 C504.054949,24.3688191 504.260589,24.4577785 504.79666,24.8356357 C504.883661,23.8711751 505.004057,23.1462883 505.005815,22.4222822 C505.021634,16.0383458 505.067331,9.65352866 504.981209,3.27047304 C504.957481,1.51858983 505.582311,0.966337057 507.259069,1.00156849 C511.049351,1.07995844 514.84139,1.0262305 518.946284,1.0262305 Z M482.511947,46.2739651 C482.511947,48.8414561 482.4434,51.4098279 482.529523,53.9737957 C482.644646,57.3903643 483.988338,60.2317797 486.883997,62.168628 C494.098099,66.9944541 503.993433,62.3395005 504.600686,53.6954674 C504.923207,49.1083343 504.865206,44.4745195 504.663081,39.876817 C504.359894,32.9212505 500.165362,28.9876605 493.301024,28.858185 C486.807541,28.7366366 482.533917,32.9318199 482.512826,39.4540397 C482.504916,41.7273482 482.511068,44.0006567 482.511947,46.2739651 Z" id="Shape"></path>
                <path d="M15.4383915,37.2159089 C15.7045864,41.9863729 15.5312917,46.828272 16.3361293,51.510749 C17.6805028,59.3241698 25.7440638,63.2574505 33.126952,62.59537 C39.5978101,62.0151785 43.7488423,58.8720385 45.0583782,52.5308757 C45.3317192,51.208457 46.0561623,50.7859451 47.3826704,50.8068529 C50.955756,50.8652206 54.5288417,50.8251473 58.1019273,50.8295031 C59.2515676,50.8303742 60.2529249,50.9810846 59.9429597,52.5195506 C58.7298971,58.534029 56.547635,64.0441067 51.6944915,68.266612 C47.6086681,71.8200676 42.7251533,73.6765064 37.4548519,74.4500952 C31.4636806,75.3290941 25.4483909,75.3107998 19.6323008,73.2304733 C11.8974637,70.4636738 6.82100223,65.0720737 3.67222051,57.7874462 C-0.256387145,48.6995205 -0.484171354,39.1490096 0.475202139,29.5932718 C1.0826267,23.5517875 2.86380989,17.735062 6.27789321,12.4401605 C10.8996795,5.27313939 17.6152939,1.45223812 25.9664883,0.39639399 C32.7383789,-0.458212519 39.4995502,-0.0844855137 45.7703155,3.04645821 C53.2005471,6.75672235 57.360512,12.8034336 58.6655816,20.7475282 C59.1050711,23.4306964 58.8728205,23.5552721 56.057229,23.5578856 C52.7074613,23.5613702 49.3541204,23.6380322 46.0106055,23.4916775 C45.3183202,23.461187 44.166,22.6762732 44.0677402,22.1013085 C42.8484247,14.9726184 37.3485526,11.9505694 29.9862097,12.4009584 C20.6970803,12.9680826 15.7930203,18.2464321 15.7045864,27.4031793 C15.6715354,30.6691526 15.6983335,33.9368682 15.6983335,37.2037126 C15.6098996,37.2080684 15.5250388,37.2124242 15.4383915,37.2159089 Z" id="Path"></path>
                <path d="M441.993225,72.9906862 C441.923237,71.7799495 441.824013,70.8031633 441.817812,69.8246695 C441.753139,59.0176917 441.78326,48.2098601 441.610504,37.4037362 C441.529885,32.4105145 437.447529,29.3811113 432.329523,30.1692001 C425.518509,31.219416 422.179446,35.4458946 422.113001,43.38399 C422.036812,52.414139 422.093511,61.4451419 422.092625,70.475291 C422.092625,71.2352033 422.092625,71.9942618 422.092625,72.9889785 C417.626662,72.9889785 413.440652,73.022278 409.258186,72.9360408 C408.854203,72.9275025 408.335935,72.2358969 408.109138,71.7551883 C407.912462,71.3410788 408.049781,70.7766945 408.049781,70.279763 C408.048895,54.4940788 408.089647,38.7066869 408.000169,22.9218566 C407.988652,20.7804407 408.563619,20.0128439 410.845769,20.1588495 C413.784392,20.3458392 416.751365,20.3253472 419.693532,20.171657 C421.711676,20.0666355 422.331826,20.7906867 422.115659,22.6204531 C421.986314,23.7150684 422.092625,24.8361525 422.092625,26.4934445 C423.316977,25.2152549 424.107225,24.3358058 424.955944,23.5127097 C429.23409,19.3613685 434.578894,18.7167238 440.294015,19.091557 C445.724754,19.4476058 450.029478,21.504492 452.923805,26.0929963 C454.941063,29.2914587 455.801299,32.8425546 455.85977,36.4534188 C456.050245,48.1116692 456.00329,59.7733348 455.966967,71.4350005 C455.965196,71.9541316 455.173176,72.9095719 454.729326,72.9206718 C450.543316,73.0376471 446.352877,72.9906862 441.993225,72.9906862 Z" id="Path"></path>
                <path d="M393.693131,73.6753655 C389.601359,73.6753655 385.588495,73.7326022 381.582644,73.6059877 C381.05572,73.5895105 380.220182,72.6902003 380.118479,72.1004887 C379.894909,70.7987871 380.049216,69.432911 380.049216,67.6117429 C379.338176,68.3957124 378.960298,68.794635 378.602586,69.2100347 C375.329695,73.0032678 371.156386,74.8452492 366.132634,74.9788016 C362.746642,75.0689927 359.407995,74.925901 356.292918,73.4602942 C351.158696,71.0450784 348.709069,66.6491255 347.653467,61.4093646 C347.187038,59.0930122 347.051143,56.6803981 347.037115,54.3094106 C346.974866,43.7613783 347.009936,33.213346 347.009059,22.6644465 C347.009059,21.9507221 347.009059,21.2361304 347.009059,20.2908574 C351.644413,20.2908574 356.105294,20.2908574 360.863393,20.2908574 C360.863393,21.1806281 360.863393,22.024436 360.863393,22.8682439 C360.863393,32.5490533 360.840597,42.2307299 360.882681,51.9124065 C360.891449,53.7838736 361.045756,55.6700834 361.323684,57.5216043 C361.952311,61.6972826 365.035825,63.9685395 369.442348,63.6311897 C375.787356,63.1455449 379.963295,58.6689402 380.010639,52.0823822 C380.080779,42.3287261 380.100944,32.5742028 379.993105,22.8222811 C379.969432,20.6334105 380.584908,19.8841299 382.8285,20.0142133 C385.958481,20.1963301 389.107752,20.079255 392.248254,20.0515039 C393.358214,20.0410972 394.002622,20.2683096 393.999992,21.6012312 C393.960538,38.6525682 393.967552,55.7030379 393.953524,72.7543748 C393.952648,72.9555705 393.843931,73.1576334 393.693131,73.6753655 Z" id="Path"></path>
                <path d="M119,46.8146521 C118.765202,51.6044054 117.941668,56.1291164 116.118936,60.5165581 C113.293528,67.3170063 108.515815,71.937547 101.307502,73.8506856 C93.9835303,75.7949042 86.8621805,75.4150391 80.1304221,71.610345 C73.8439112,68.0577432 70.5645596,62.3589037 69.0661977,55.6309752 C67.2286825,47.3775431 67.5982726,39.1992206 71.5002749,31.5034995 C75.3544479,23.9027446 81.7505314,19.8399149 90.243278,19.1501145 C96.3967365,18.6502466 102.35366,19.2813406 107.690542,22.8425757 C112.609134,26.124092 115.677167,30.7334093 117.202487,36.2664895 C118.14516,39.6895919 118.423439,43.2931301 119,46.8146521 Z M104.263354,46.7801189 C104.267702,46.7801189 104.27205,46.7801189 104.276398,46.7801189 C104.276398,44.4068255 104.288573,42.0326687 104.273789,39.658512 C104.245092,34.7012727 102.311048,31.7236485 97.5159424,30.4018907 C95.2323102,29.7725234 92.6347437,29.8519497 90.2389299,30.1264886 C85.7777595,30.6367164 82.5436283,34.4733537 82.51667,38.8918752 C82.4827547,44.2868227 82.4862332,49.6826334 82.5201485,55.0775808 C82.5384106,57.9990886 83.7463181,60.3577054 86.2125714,62.0032119 C90.0702229,64.5776611 94.2365908,64.6527708 98.4499185,63.1773403 C102.276263,61.8365892 104.192914,58.9996878 104.255527,54.9800246 C104.298139,52.247586 104.263354,49.5142841 104.263354,46.7801189 Z" id="Shape"></path>
                <path d="M334,47.8146521 C333.765202,52.6044054 332.941668,57.1291164 331.118936,61.5165581 C328.293528,68.3170063 323.515815,72.937547 316.307502,74.8506856 C308.98353,76.7949042 301.86218,76.4150391 295.130422,72.610345 C288.843911,69.0577432 285.56456,63.3589037 284.066198,56.6309752 C282.228682,48.3775431 282.598273,40.1992206 286.500275,32.5034995 C290.354448,24.9027446 296.750531,20.8399149 305.243278,20.1501145 C311.396737,19.6502466 317.35366,20.2813406 322.690542,23.8425757 C327.609134,27.124092 330.677167,31.7334093 332.202487,37.2664895 C333.146029,40.6895919 333.423439,44.2931301 334,47.8146521 Z M319.263354,47.7801189 C319.267702,47.7801189 319.27205,47.7801189 319.276398,47.7801189 C319.276398,45.4068255 319.288573,43.0326687 319.273789,40.658512 C319.245092,35.7012727 317.311048,32.7236485 312.515942,31.4018907 C310.23231,30.7725234 307.634744,30.8519497 305.23893,31.1264886 C300.777759,31.6367164 297.543628,35.4733537 297.51667,39.8918752 C297.482755,45.2868227 297.486233,50.6826334 297.520148,56.0775808 C297.538411,58.9990886 298.746318,61.3577054 301.212571,63.0032119 C305.070223,65.5776611 309.236591,65.6527708 313.449918,64.1773403 C317.276263,62.8365892 319.192914,59.9996878 319.255527,55.9800246 C319.298139,53.247586 319.263354,50.5142841 319.263354,47.7801189 Z" id="Shape"></path>
            </g>
        </g>
    </g>
</svg>