<?xml version="1.0" encoding="UTF-8"?>
<svg width="122px" height="27px" viewBox="0 0 122 27" version="1.1" xmlns="http://www.w3.org/2000/svg" xmlns:xlink="http://www.w3.org/1999/xlink">
    <!-- Generator: Sketch 59.1 (86144) - https://sketch.com -->
    <title>compound-logo</title>
    <desc>Created with Sketch.</desc>
    <g id="Page-1" stroke="none" stroke-width="1" fill="none" fill-rule="evenodd">
        <g id="compound-logo">
            <path d="M118.781,15.3564 C118.781,13.7775 117.851,12.5888 116.383,12.5888 C114.915,12.5888 113.984,13.7775 113.984,15.3564 C113.984,16.9352 114.915,18.1239057 116.383,18.1239057 C117.854,18.1269 118.781,16.9382 118.781,15.3564 Z M118.709,11.5293 L118.709,7.39303 C118.709,7.11988 118.892,6.88275 119.156,6.81371 L121.35,6.22839 L121.35,20.225 L118.916,20.225 L118.916,19.0364 C118.304,19.9278 117.205,20.4501 115.83,20.4501 C113.006,20.4501 111.352,18.1839 111.352,15.3594 C111.352,12.5348 113.006,10.2686 115.83,10.2686 C117.202,10.2656 118.208,10.8599 118.709,11.5293 Z M103.734,10.4877 L103.734,11.6764 C104.181,10.8389 105.184,10.2626 106.633,10.2626 C108.975,10.2626 110.22,11.8234 110.22,14.1467 L110.22,20.225 L107.582,20.225 L107.582,14.4469 C107.582,13.3122 107.099,12.5318 105.928,12.5318 C104.646,12.5318 103.941,13.3483 103.941,14.651 L103.941,20.225 L101.303,20.225 L101.303,10.4877 L103.734,10.4877 Z M95.1342,20.4501 C92.2917,20.4501 90.7098,19.2225 90.7098,16.0647 L90.7098,10.4877 L93.3482,10.4877 L93.3482,16.1008 C93.3482,17.4575 93.9606,18.0878 95.1312,18.0878 C96.3018,18.0878 96.9142,17.4545 96.9142,16.1008 L96.9142,10.4877 L99.552617,10.4877 L99.552617,16.0617 C99.5586,19.2225 97.9767,20.4501 95.1342,20.4501 Z M81.9991,15.3564 C81.9991,17.1033 83.0767,18.1239 84.4694,18.1239 C85.8622,18.1239 86.9398,17.1003 86.9398,15.3564 C86.9398,13.6124 85.8622,12.5888 84.4694,12.5888 C83.0797,12.5888 81.9991,13.6094 81.9991,15.3564 Z M84.4724,20.4501 C81.3507,20.4501 79.3606,18.1269 79.3606,15.3594 C79.3606,12.5919 81.3477,10.2686 84.4724,10.2686 C87.5941,10.2686 89.5842,12.5919 89.5842,15.3594 C89.5812,18.1269 87.5941,20.4501 84.4724,20.4501 Z M71.3193,15.3564 C71.3193,16.9352 72.2498,18.1239 73.7176,18.1239 C75.1854,18.1239 76.1159,16.9352 76.1159,15.3564 C76.1159,13.7775 75.1854,12.5888 73.7176,12.5888 C72.2498,12.5888 71.3193,13.7775 71.3193,15.3564 Z M71.3943,19.1864 L71.3943,23.2356 C71.3943,23.5088 71.2112,23.7459 70.9471,23.8149 L68.7559,24.3913 L68.7559,10.4877 L71.1902,10.4877 L71.1902,11.6764 C71.8025,10.7849 72.9011,10.2626 74.2759,10.2626 C77.1004,10.2626 78.7543,12.5288 78.7543,15.3534 C78.7543,18.1779 77.1004,20.4441 74.2759,20.4441 C72.8981,20.4501 71.8956,19.8558 71.3943,19.1864 Z M60.9186,14.687 L60.9186,20.225 L58.2802,20.225 L58.2802,14.4469 C58.2802,13.3693 57.89,12.5318 56.7193,12.5318 C55.4917,12.5318 54.8223,13.3303 54.8223,14.633 L54.8223,20.228 L52.1839,20.228 L52.1839,10.4877 L54.6182,10.4877 L54.6182,11.6764 C55.0654,10.8389 56.032,10.2626 57.4247,10.2626 C58.7454,10.2626 59.691,10.7819 60.2493,11.6373 C61.1047,10.6888 62.0893,10.2626 63.482,10.2626 C65.8233,10.2626 67.0119,11.8805 67.0119,14.1467 L67.0119,20.225 L64.3735,20.225 L64.3735,14.4469 C64.3735,13.3693 63.9833,12.5318 62.8126,12.5318 C61.567,12.5318 60.9186,13.3303 60.9186,14.687 Z M43.3801,15.3564 C43.3801,17.1033 44.4577,18.1239 45.8504,18.1239 C47.2432,18.1239 48.3208,17.1003 48.3208,15.3564 C48.3208,13.6124 47.2432,12.5888 45.8504,12.5888 C44.4577,12.5888 43.3801,13.6094 43.3801,15.3564 Z M45.8504,20.4501 C42.7287,20.4501 40.7387,18.1269 40.7387,15.3594 C40.7387,12.5919 42.7257,10.2686 45.8504,10.2686 C48.9751,10.2686 50.9622,12.5919 50.9622,15.3594 C50.9622,18.1269 48.9721,20.4501 45.8504,20.4501 Z M27.0482,13.6094 C27.0482,9.48516 29.8908,6.75068 33.6818,6.75068 C36.9716,6.75068 39.574,8.70174 40.0753,11.9165 L37.1757,11.9165 C36.7855,10.2626 35.4468,9.33208 33.6818,9.33208 C31.2655,9.33208 29.9088,11.004 29.9088,13.6064 C29.9088,16.2088 31.2655,17.8807 33.6818,17.8807 C35.4468,17.8807 36.7855,16.9502 37.1757,15.2963 L40.0753,15.2963 C39.574,18.5111 36.9716,20.4621099 33.6818,20.4621099 C29.8908,20.4681 27.0482,17.7366 27.0482,13.6094 Z" id="Shape" fill="#000000"></path>
            <path d="M1.08359,21.0428 C0.411223,20.6315 0,19.8992 0,19.1127 L0,14.7213 C0,14.5532 0.0450245,14.3912 0.12907,14.2471 C0.390212,13.7968 0.969527,13.6438 1.41977,13.9079 L11.3312,19.686 C11.9105,20.0252 12.2677,20.6436 12.2677,21.3159 L12.2677,25.8664 C12.2677,26.0735 12.2106,26.2806 12.1026,26.4577 C11.7754,26.992 11.079,27.1601 10.5447,26.8329 L1.08359,21.0428 Z M15.8576,12.7042 C16.4369,13.0434 16.7941,13.6618 16.7941,14.3341 L16.7941,23.5671 C16.7941,23.8403 16.647,24.0924 16.4099,24.2245 L14.2397,25.4462 C14.2127,25.4612 14.1827,25.4732 14.1527,25.4822 L14.1527,20.3554 C14.1527,19.692 13.8045,19.0767 13.2342,18.7345 L4.52946,13.5267 L4.52946,7.73955 C4.52946,7.57145 4.57449,7.40937 4.65853,7.26529 C4.91967,6.81504 5.49899,6.66196 5.94923,6.9261 L15.8576,12.7042 Z M20.195,5.88454 C20.7773,6.22072 21.1345,6.84506 21.1345,7.51743 L21.1345,21.0038 C21.1345,21.2799 20.9814,21.535 20.7383,21.6671 L18.6821,22.7777 L18.6821,13.3886 C18.6821,12.7253 18.334,12.1129 17.7667,11.7707 L8.86982,6.43384 L8.86982,0.943854 C8.86982,0.775763 8.91484,0.613675 8.99589,0.469596 C9.25703,0.0193519 9.83634,-0.133731 10.2866,0.127411 L20.195,5.88454 Z" id="Shape" fill="#00D395"></path>
        </g>
    </g>
</svg>