<?xml version="1.0" encoding="UTF-8"?>
<svg width="18px" height="20px" viewBox="0 0 18 20" version="1.1" xmlns="http://www.w3.org/2000/svg" xmlns:xlink="http://www.w3.org/1999/xlink">
    <!-- Generator: Sketch 59.1 (86144) - https://sketch.com -->
    <title>discord</title>
    <desc>Created with Sketch.</desc>
    <g id="Page-1" stroke="none" stroke-width="1" fill="none" fill-rule="evenodd">
        <g id="discord" fill="#7289DA" fill-rule="nonzero">
            <path d="M6.94,8.39 C6.37,8.39 5.92,8.89 5.92,9.5 C5.92,10.11 6.38,10.61 6.94,10.61 C7.51,10.61 7.96,10.11 7.96,9.5 C7.97,8.89 7.51,8.39 6.94,8.39 Z M10.59,8.39 C10.02,8.39 9.57,8.89 9.57,9.5 C9.57,10.11 10.03,10.61 10.59,10.61 C11.16,10.61 11.61,10.11 11.61,9.5 C11.61,8.89 11.16,8.39 10.59,8.39 Z" id="Shape"></path>
            <path d="M15.45,0 L2.05,0 C0.92,0 0,0.92 0,2.06 L0,15.58 C0,16.72 0.92,17.64 2.05,17.64 L13.39,17.64 L12.86,15.79 L14.14,16.98 L15.35,18.1 L17.5,20 L17.5,2.06 C17.5,0.92 16.58,0 15.45,0 Z M11.59,13.06 C11.59,13.06 11.23,12.63 10.93,12.25 C12.24,11.88 12.74,11.06 12.74,11.06 C12.33,11.33 11.94,11.52 11.59,11.65 C11.09,11.86 10.61,12 10.14,12.08 C9.18,12.26 8.3,12.21 7.55,12.07 C6.98,11.96 6.49,11.8 6.08,11.64 C5.85,11.55 5.6,11.44 5.35,11.3 C5.32,11.28 5.29,11.27 5.26,11.25 C5.24,11.24 5.23,11.23 5.22,11.22 C5.04,11.12 4.94,11.05 4.94,11.05 C4.94,11.05 5.42,11.85 6.69,12.23 C6.39,12.61 6.02,13.06 6.02,13.06 C3.81,12.99 2.97,11.54 2.97,11.54 C2.97,8.32 4.41,5.71 4.41,5.71 C5.85,4.63 7.22,4.6599169 7.22,4.6599169 L7.32,4.78 C5.52,5.3 4.69,6.09 4.69,6.09 C4.69,6.09 4.91,5.97 5.28,5.8 C6.35,5.33 7.2,5.2 7.55,5.17 C7.61,5.16 7.66,5.15 7.72,5.15 C8.33,5.07 9.02,5.05 9.74,5.13 C10.69,5.24 11.71,5.52 12.75,6.09 C12.75,6.09 11.96,5.34 10.26,4.82 L10.4,4.6599169 C10.4,4.6599169 11.77,4.63 13.21,5.71 C13.21,5.71 14.65,8.32 14.65,11.54 C14.65,11.54 13.8,12.99 11.59,13.06 L11.59,13.06 Z" id="Shape"></path>
        </g>
    </g>
</svg>