<?xml version="1.0" encoding="UTF-8"?>
<svg width="2212px" height="1088px" viewBox="0 0 2212 1088" version="1.1" xmlns="http://www.w3.org/2000/svg" xmlns:xlink="http://www.w3.org/1999/xlink">
    <!-- Generator: Sketch 54.1 (76490) - https://sketchapp.com -->
    <title>dydx</title>
    <desc>Created with Sketch.</desc>
    <g id="Page-1" stroke="none" stroke-width="1" fill="none" fill-rule="evenodd">
        <g id="dydx" fill="#000000" fill-rule="nonzero">
            <path d="M1370.4552,0 L855.837261,1088 L817.723408,1088 L1332.34135,0 L1370.4552,0 Z M1437.1868,360.121345 C1437.1868,329.645303 1448.63574,304.862143 1471.49011,285.806139 C1495.00108,266.758613 1525.17423,257.230796 1562.02651,257.230796 C1586.18559,257.230796 1609.3773,259.770589 1631.60089,264.849806 C1654.48144,269.929024 1681.15483,279.76828 1711.65609,294.392637 L1694.5131,326.777486 C1666.5608,312.8007 1642.72982,302.961813 1623.03787,297.243132 C1603.32859,292.163915 1583.317,289.624122 1562.99426,289.624122 C1535.67275,289.624122 1514.37341,295.981897 1499.13126,308.680125 C1483.25832,321.378353 1475.30913,338.214479 1475.30913,359.170812 C1475.30913,379.496527 1481.6513,396.963271 1494.3703,411.570674 C1507.7116,425.54746 1537.25359,445.864698 1583.00584,472.539712 C1624.30793,496.683778 1654.16144,517.320564 1672.59181,534.467391 C1691.65298,552.253682 1705.62507,571.309685 1714.52468,591.635401 C1722.7677,611.961116 1726.90672,636.416253 1726.90672,665.000442 C1726.90672,721.529357 1711.34493,766.301731 1680.22137,799.33452 C1649.08047,831.728215 1605.54059,847.9164 1549.65295,847.9164 C1495.6492,847.9164 1452.42858,832.358832 1420.02648,801.252541 C1388.25479,770.7507 1372.37338,729.796676 1372.37338,678.321179 C1372.37338,630.050369 1386.03431,590.685973 1413.36467,560.201454 C1440.03843,529.077841 1482.92173,505.892416 1542.01492,490.645919 C1502.63101,468.419505 1475.30913,447.454326 1460.06735,427.759228 C1444.79902,407.441621 1437.1868,384.89566 1437.1868,360.121345 Z M1862.2361,296.292967 L2009.00556,528.757925 L2157.68473,296.292967 L2198.67602,296.292967 L2029.98527,556.383103 L2212,840.288913 L2169.11671,840.288913 L2008.05551,586.876099 L1844.12572,840.288913 L1802.21018,840.288913 L1985.18418,556.383103 L1819.35317,296.292967 L1862.2361,296.292967 Z M1491.51903,538.285742 C1472.45786,547.813928 1457.19839,559.250921 1445.76677,572.579766 C1434.31783,585.28684 1425.73786,600.541815 1420.02648,618.310783 C1413.67546,636.097074 1410.49571,656.103242 1410.49571,678.32081 C1410.49571,719.629027 1423.20622,752.644493 1448.61804,777.427654 C1474.02138,802.176169 1508.03087,814.572173 1550.59452,814.572173 C1594.42824,814.572173 1628.43773,801.882422 1652.56253,776.460166 C1676.72162,750.406925 1688.78402,712.951336 1688.78402,664.050277 C1688.78402,631.017488 1679.88404,602.442145 1662.0933,578.306555 C1644.9503,554.171335 1615.40795,531.616528 1573.47508,510.651349 C1537.25396,519.549286 1509.94941,528.757925 1491.51903,538.285742 Z M259.22788,264.849806 C282.099584,269.929024 308.773346,279.76828 339.283083,294.392637 L322.122761,326.777486 C294.161616,312.8007 270.33949,302.961813 250.647535,297.243132 C230.95558,292.163915 210.935144,289.624122 190.603921,289.624122 C163.290892,289.624122 142.000399,295.981897 126.758249,308.680125 C110.859504,321.378353 102.936123,338.214479 102.936123,359.170812 C102.936123,379.496527 109.278294,396.963271 121.997289,411.570674 C135.329746,425.54746 164.880582,445.864698 210.623989,472.539712 C251.917591,496.683778 281.779581,517.320564 300.192632,534.467391 C319.262646,552.253682 333.24285,571.309685 342.13435,591.635401 C350.394693,611.961116 354.524864,636.416253 354.524864,665.000442 C354.524864,721.529357 338.954601,766.301731 307.831034,799.33452 C276.698988,831.728215 233.16758,847.9164 177.262616,847.9164 C123.258866,847.9164 80.0555713,832.358832 47.6531001,801.252541 C15.8814174,770.7507 0,729.796676 0,678.321179 C0,630.050369 13.6609388,590.685973 40.9824477,560.201454 C67.6646888,529.077841 110.547981,505.892416 169.641173,490.645919 C130.248415,468.419505 102.935386,447.454326 87.6762774,427.759228 C72.4256485,407.44199 64.8045737,384.896029 64.8045737,360.121345 C64.8045737,329.645303 76.2446653,304.862143 99.116369,285.806139 C122.62734,266.758613 152.800485,257.230796 189.652761,257.230796 C213.795627,257.230796 236.986965,259.77022 259.22788,264.849806 Z M119.129064,538.285742 C100.067897,547.813928 84.8257477,559.250921 73.3768082,572.579766 C61.945196,585.28684 53.3652195,600.541815 47.6538374,618.310783 C41.2943396,636.097074 38.12307,656.103242 38.12307,678.32081 C38.12307,719.629027 50.8247384,752.644493 76.2454026,777.427654 C101.648739,802.176169 135.649749,814.572173 178.221887,814.572173 C222.055601,814.572173 256.048131,801.882422 280.189891,776.460166 C304.331651,750.406925 316.411379,712.951336 316.411379,664.050277 C316.411379,631.017488 307.5114,602.442145 289.720659,578.306555 C272.569185,554.171335 243.017981,531.616528 201.093959,510.651349 C164.88095,519.549286 137.550962,528.757925 119.129064,538.285742 Z M835.807977,296.292967 L654.743671,629.756621 L654.743671,840.288913 L615.653589,840.288913 L615.653589,632.598639 L433.638861,296.292967 L477.472576,296.292967 L635.682505,593.544945 L794.825529,296.292967 L835.807977,296.292967 Z" id="Shape"></path>
        </g>
    </g>
</svg>