<?xml version="1.0" encoding="UTF-8"?>
<svg width="127px" height="50px" viewBox="0 0 127 50" version="1.1" xmlns="http://www.w3.org/2000/svg" xmlns:xlink="http://www.w3.org/1999/xlink">
    <!-- Generator: Sketch 58 (84663) - https://sketch.com -->
    <title>Group 4</title>
    <desc>Created with Sketch.</desc>
    <g id="EARN" stroke="none" stroke-width="1" fill="none" fill-rule="evenodd">
        <g id="Earn-Step-04-Copy" transform="translate(-251.000000, -25.000000)">
            <g id="Group-4" transform="translate(251.000000, 25.000000)">
                <path d="M61.6020002,34.6 C61.3966658,34.6 61.2380007,34.5346673 61.1260002,34.404 C61.0139996,34.2733327 60.9766666,34.1053344 61.0140002,33.9 L64.8780002,15.728 C64.9153337,15.5226656 65.0179993,15.3500007 65.1860002,15.21 C65.354001,15.0699993 65.5406658,15 65.7460002,15 L78.9620002,15 C79.1673345,15 79.321333,15.0699993 79.4240002,15.21 C79.5266673,15.3500007 79.5593337,15.5226656 79.5220002,15.728 L78.9340002,18.5 C78.8966666,18.7053344 78.794001,18.8733327 78.6260002,19.004 C78.4579993,19.1346673 78.2713345,19.2 78.0660002,19.2 L69.2180002,19.2 L68.4340002,22.756 L76.6940002,22.756 C76.8993345,22.756 77.053333,22.8259993 77.1560002,22.966 C77.2586673,23.1060007 77.2913337,23.2786656 77.2540002,23.484 L76.7220002,26.032 C76.6846666,26.2373344 76.582001,26.4099993 76.4140002,26.55 C76.2459993,26.6900007 76.0593345,26.76 75.8540002,26.76 L67.5940002,26.76 L66.8380002,30.4 L75.9100002,30.4 C76.1153345,30.4 76.269333,30.4699993 76.3720002,30.61 C76.4746673,30.7500007 76.5073337,30.9226656 76.4700002,31.128 L75.8820002,33.9 C75.8446666,34.1053344 75.742001,34.2733327 75.5740002,34.404 C75.4059993,34.5346673 75.2286678,34.6 75.0420002,34.6 L61.6020002,34.6 Z M84.1140002,34.88 C82.5459923,34.88 81.3373377,34.4553376 80.4880002,33.606 C79.6386626,32.7566624 79.2140002,31.5480078 79.2140002,29.98 C79.2140002,29.3453302 79.2606664,28.7853358 79.3540002,28.3 L79.7740002,26.312 C80.3153362,24.2399896 81.1926608,22.6300057 82.4060002,21.482 C83.6193396,20.3339943 85.1686574,19.76 87.0540002,19.76 C88.0993387,19.76 88.9206638,19.9046652 89.5180002,20.194 C90.1153365,20.4833348 90.6099982,20.898664 91.0020002,21.44 L91.1700002,20.74 C91.2073337,20.5346656 91.3053327,20.3666673 91.4640002,20.236 C91.6226676,20.1053327 91.8046658,20.04 92.0100002,20.04 L95.3140002,20.04 C95.5193345,20.04 95.6779996,20.1099993 95.7900002,20.25 C95.9020007,20.3900007 95.9393337,20.5533324 95.9020002,20.74 L93.1020002,33.9 C93.0646666,34.1053344 92.962001,34.2733327 92.7940002,34.404 C92.6259993,34.5346673 92.4486678,34.6 92.2620002,34.6 L88.9300002,34.6 C88.7246658,34.6 88.5660007,34.5300007 88.4540002,34.39 C88.3419996,34.2499993 88.3046666,34.0866676 88.3420002,33.9 L88.5380002,33.032 C87.8846636,33.6480031 87.2313368,34.1099985 86.5780002,34.418 C85.9246636,34.7260015 85.1033384,34.88 84.1140002,34.88 Z M86.1860002,30.988 C87.0073376,30.988 87.6746643,30.7313359 88.1880002,30.218 C88.7013361,29.7046641 89.0606658,29.0560039 89.2660002,28.272 C89.4713345,27.4879961 89.6206664,26.7880031 89.7140002,26.172 L89.7498402,25.8539195 C89.7632802,25.7150398 89.7700002,25.6064004 89.7700002,25.528 C89.7700002,24.9493304 89.6206683,24.4920017 89.3220002,24.156 C89.023332,23.8199983 88.5473368,23.652 87.8940002,23.652 C87.0913295,23.652 86.4566692,23.8993309 85.9900002,24.394 C85.5233312,24.8886691 85.1593348,25.5746623 84.8980002,26.452 C84.7113326,27.0866698 84.5900004,27.6653307 84.5340002,28.188 C84.4779999,28.5240017 84.4500002,28.8413318 84.4500002,29.14 C84.4500002,29.7373363 84.5806655,30.1946651 84.8420002,30.512 C85.1033348,30.8293349 85.5513303,30.988 86.1860002,30.988 Z M96.8820002,34.6 C96.6766658,34.6 96.5226673,34.5300007 96.4200002,34.39 C96.317333,34.2499993 96.2846666,34.0866676 96.3220002,33.9 L99.0940002,20.768 C99.1313337,20.5626656 99.2339993,20.3900007 99.4020002,20.25 C99.570001,20.1099993 99.7566658,20.04 99.9620002,20.04 L103.378,20.04 C103.583335,20.04 103.737333,20.1099993 103.84,20.25 C103.942667,20.3900007 103.975334,20.5626656 103.938,20.768 L103.714,21.832 C104.199336,21.2533304 104.777997,20.8100015 105.45,20.502 C106.122004,20.1939985 106.943329,20.04 107.914,20.04 L109.538,20.04 C109.724668,20.04 109.869333,20.1053327 109.972,20.236 C110.074667,20.3666673 110.107334,20.5346656 110.07,20.74 L109.426,23.792 C109.407333,23.9786676 109.314001,24.1419993 109.146,24.282 C108.977999,24.4220007 108.791335,24.492 108.586,24.492 L105.758,24.492 C105.01133,24.492 104.395336,24.6973313 103.91,25.108 C103.424664,25.5186687 103.107334,26.0973296 102.958,26.844 L101.446,33.9 C101.408667,34.1053344 101.306001,34.2733327 101.138,34.404 C100.969999,34.5346673 100.783335,34.6 100.578,34.6 L96.8820002,34.6 Z M109.846,34.6 C109.640666,34.6 109.486667,34.5300007 109.384,34.39 C109.281333,34.2499993 109.248667,34.0866676 109.286,33.9 L112.058,20.74 C112.095334,20.5533324 112.197999,20.3900007 112.366,20.25 C112.534001,20.1099993 112.720666,20.04 112.926,20.04 L116.37,20.04 C116.556668,20.04 116.701333,20.1053327 116.804,20.236 C116.906667,20.3666673 116.939334,20.5346656 116.902,20.74 L116.678,21.804 C118.078007,20.4413265 119.692658,19.76 121.522,19.76 C122.996674,19.76 124.144663,20.1379962 124.966,20.894 C125.787338,21.6500038 126.198,22.7466595 126.198,24.184 C126.198,24.7066693 126.123334,25.3413296 125.974,26.088 L124.294,33.9 C124.256667,34.1053344 124.158668,34.2733327 124,34.404 C123.841333,34.5346673 123.659335,34.6 123.454,34.6 L119.73,34.6 C119.524666,34.6 119.370667,34.5300007 119.268,34.39 C119.165333,34.2499993 119.132667,34.0866676 119.17,33.9 L120.766,26.256 C120.859334,25.8266645 120.906,25.4813346 120.906,25.22 C120.906,24.6973307 120.761335,24.3053346 120.472,24.044 C120.182665,23.7826654 119.730003,23.652 119.114,23.652 C118.329996,23.652 117.66267,23.8806644 117.112,24.338 C116.561331,24.7953356 116.192668,25.4346626 116.006,26.256 L114.41,33.9 C114.372667,34.1053344 114.270001,34.2733327 114.102,34.404 C113.933999,34.5346673 113.756668,34.6 113.57,34.6 L109.846,34.6 Z" id="Earn" fill="#000000" fill-rule="nonzero"></path>
                <g id="Group-8">
                    <rect id="Rectangle-Copy-7" fill="#F8E71C" x="0" y="0" width="51" height="50" rx="15"></rect>
                    <g id="noun_Avocado_1869247-Copy" transform="translate(11.000000, 9.000000)" fill="#000000" fill-rule="nonzero">
                        <g id="Group" transform="translate(0.000000, 0.235386)">
                            <path d="M25.7299715,0.133654286 C25.0276596,0.896881667 24.4405072,2.14946619 24.2875553,3.17958881 C23.5382261,3.02975548 22.6809948,3.12596619 22.0293439,3.26048405 C20.7728061,3.52472214 19.3949261,4.06980548 17.9622077,4.7752769 C15.1224969,6.17359833 12.1047742,8.18782333 9.81610341,9.85160071 C5.47214557,11.6124745 2.07356951,15.2863214 0.676861405,19.1138619 C-0.0267558919,21.0420988 -0.230622378,23.0337381 0.298524649,24.8261655 C0.827667892,26.618519 2.11792681,28.1857905 4.17649476,29.1855405 C10.3404715,31.2753464 15.080898,30.4681655 18.7070607,28.2142071 C22.4525564,25.7889 25.0775337,21.6927298 26.8176921,16.9977429 C27.6454931,14.550219 27.9814629,12.0961114 28.0000005,9.94412095 C28.0000005,7.59380429 27.4779888,5.25061024 25.7417921,3.88491262 C25.8067596,2.91568286 26.3457483,1.68081262 26.8649856,1.11657571 L25.7299715,0.133654286 Z M24.5358396,4.84462095 C24.9028099,5.03062095 25.3913834,5.38863405 25.5998964,5.95464238 C26.2776931,8.55362333 25.0126721,11.5122781 22.9515277,14.4768155 C20.8689445,17.4721536 18.0373915,20.3952321 15.9404412,22.8718 C13.0912748,26.176769 8.42624773,28.6536321 4.81492124,27.8323905 C3.11060627,26.9932869 2.16749059,25.814475 1.75274249,24.4096583 C1.33471762,22.9936226 1.47318897,21.3281107 2.09561384,19.6223726 C3.340456,16.2110071 6.53409476,12.7482924 10.4781785,11.1811686 C10.5370391,11.1575495 10.5928007,11.1261436 10.6437002,11.0886483 C12.8942531,9.44915429 15.9082034,7.44806738 18.6361034,6.10480786 C20.0000553,5.433215 21.2982526,4.92654952 22.3485515,4.70567452 C23.1508726,4.53056143 23.7980472,4.52934357 24.5358396,4.84462095 L24.5358396,4.84462095 Z M17.784858,7.07639952 C15.9533326,8.11349714 14.2152931,9.23776381 13.4694337,9.96726024 C13.1785326,10.2375876 13.1704731,10.7451757 13.4526715,11.0242126 C13.734851,11.3032864 14.2539218,11.3009983 14.5335283,11.019415 C14.9226866,10.6388531 16.7788596,9.35792571 18.5415504,8.35987333 C19.734271,7.74153405 20.8681991,7.00705548 22.1357666,6.77558881 C22.5164834,6.88453167 22.9642602,6.64490905 23.0756926,6.27254 C23.1871212,5.90024476 22.9421137,5.46225905 22.5614007,5.35331619 C20.8123012,5.24289714 19.1077445,6.33025905 17.784858,7.07639952 L17.784858,7.07639952 Z M6.69481097,15.112869 C9.21211314,13.2005602 12.5165748,13.5993531 15.2428969,15.4481857 C15.3546434,15.1908119 15.4621634,14.9351726 15.5739439,14.661856 C15.6685764,14.413856 15.9089034,14.2248519 16.1769202,14.1877626 C16.6992148,14.1245817 17.1703337,14.7297607 16.9690666,15.2053524 C16.2020319,17.0808048 15.4225774,18.6618352 14.4510235,20.0045428 C14.3947382,19.7056256 14.2624533,19.4225074 14.0554729,19.1546085 C13.7835644,18.8026718 13.481525,18.5685592 13.1493457,18.4522636 C12.8171663,18.3359679 12.4287148,18.3277829 11.9839793,18.4277084 C11.5392439,18.5276338 11.0002065,18.7346951 10.366851,19.0488984 C9.81077632,19.3063024 9.40739346,19.4537096 9.1566903,19.4911241 C8.90598715,19.5285387 8.7170469,19.4649392 8.58986389,19.3003237 C8.46268089,19.1357081 8.43456147,18.9605846 8.50550481,18.7749477 C8.57644815,18.5893108 8.7367557,18.4047425 8.98643227,18.2212374 C9.20044077,18.0639472 9.41503222,17.9707505 9.63021308,17.9416444 C9.84539393,17.9125383 10.0168648,17.9444794 10.144631,18.0374688 C10.2889636,18.091583 10.4294917,18.068395 10.5662193,17.9679041 L10.5662193,17.9679041 L11.814596,17.0503829 C11.8680981,17.0110603 11.8984295,16.959844 11.905591,16.8967324 C11.9127526,16.8336208 11.8965983,16.7765221 11.8571277,16.7254345 C11.6829704,16.5241461 11.4334847,16.3671024 11.1086634,16.2542986 C10.783842,16.1414947 10.4118838,16.1033884 9.99277774,16.1399785 C9.57367165,16.1765686 9.1416369,16.304986 8.69666054,16.5252345 L8.69666054,16.5252345 L8.22301585,15.9121866 C8.17477403,15.8497463 8.11449796,15.8139513 8.04218585,15.8048007 C7.96987374,15.7956501 7.90102298,15.815105 7.83563149,15.8631659 L7.83563149,15.8631659 L7.05984065,16.4333213 C7.00040778,16.4770315 6.96374205,16.5351283 6.94985629,16.6076318 C6.93597053,16.6801354 6.95314831,16.7476063 7.00139014,16.8100467 L7.00139014,16.8100467 L7.46187803,17.4060654 C6.92286401,17.9268212 6.60485982,18.4742551 6.50785594,19.0483834 C6.41085206,19.6225118 6.53996582,20.1394623 6.89520112,20.5992505 C7.29429262,21.1158026 7.77961921,21.3820713 8.35119546,21.3980645 C8.92277171,21.4140577 9.62082998,21.2258391 10.4453912,20.833403 C10.8769191,20.6319384 11.2123036,20.4900103 11.4515548,20.4076144 C11.6908059,20.3252185 11.8861028,20.2884757 12.0374512,20.297385 C12.1887996,20.3062942 12.310521,20.37035 12.4026191,20.4895543 C12.5298021,20.6541698 12.5418907,20.8477502 12.4388854,21.0703013 C12.3358801,21.2928524 12.1238742,21.5220921 11.8028615,21.7580274 C11.309453,22.1206685 10.8500085,22.2136089 10.4245143,22.0368514 C10.327156,22.01941 10.2489004,22.0146286 10.1897451,22.0225072 C10.1305899,22.0303858 10.0623728,22.0627243 9.98509199,22.1195235 L9.98509199,22.1195235 L8.79913418,22.9911687 C8.74563206,23.0304912 8.71271814,23.0813807 8.70039144,23.1438387 C8.68806475,23.2062967 8.70163649,23.2630686 8.74109206,23.3141675 C8.95912062,23.5722085 9.23898825,23.7625447 9.58071835,23.8851703 C9.6379846,23.9057196 9.69658959,23.9235979 9.75653336,23.9388051 C8.45704322,24.5918915 6.93470876,25.1431393 5.12234232,25.6354869 C4.73120124,25.7746548 4.24511368,25.5294964 4.13421476,25.1371619 C4.02331962,24.7447905 4.31165908,24.2902714 4.72035692,24.2131774 C5.00978989,24.1345702 5.27623259,24.0514976 5.54797259,23.970344 C3.40103816,21.3545714 4.00912286,17.364281 6.69481097,15.112869 Z" id="Shape"></path>
                        </g>
                    </g>
                </g>
            </g>
        </g>
    </g>
</svg>