<?xml version="1.0" encoding="UTF-8"?>
<svg width="126px" height="50px" viewBox="0 0 126 50" version="1.1" xmlns="http://www.w3.org/2000/svg" xmlns:xlink="http://www.w3.org/1999/xlink">
    <!-- Generator: Sketch 59.1 (86144) - https://sketch.com -->
    <title>Group 3</title>
    <desc>Created with Sketch.</desc>
    <g id="EARN" stroke="none" stroke-width="1" fill="none" fill-rule="evenodd">
        <g id="Earn-Step-01" transform="translate(-221.000000, -439.000000)">
            <g id="Group-3" transform="translate(221.000000, 439.000000)">
                <path d="M61.88,35 C61.6746656,35 61.5160006,34.9300007 61.404,34.79 C61.2919994,34.6499993 61.2546665,34.4866676 61.292,34.3 L62.552,28.336 L58.66,16.296 C58.6413332,16.2399997 58.632,16.1653338 58.632,16.072 C58.632,15.8853324 58.7019993,15.7266673 58.842,15.596 C58.9820007,15.4653327 59.1546656,15.4 59.36,15.4 L62.832,15.4 C63.0933346,15.4 63.2939993,15.4653327 63.434,15.596 C63.5390005,15.6940005 63.6151252,15.7972498 63.662375,15.9057498 L66.08,23.016 L71.428,16.016 C71.5213338,15.8666659 71.665999,15.7266673 71.862,15.596 C72.058001,15.4653327 72.2866654,15.4 72.548,15.4 L76.524,15.4 C76.6920008,15.4 76.8179996,15.4419996 76.902,15.526 C76.9860004,15.6100004 77.028,15.7173327 77.028,15.848 C77.028,15.9973341 76.9720006,16.1466659 76.86,16.296 L67.816,28.336 L66.556,34.3 C66.5186665,34.5053344 66.4160008,34.6733327 66.248,34.804 C66.0799992,34.9346673 65.8933344,35 65.688,35 L61.88,35 Z M78.844,18.424 C78.6386656,18.424 78.4800006,18.3540007 78.368,18.214 C78.2559994,18.0739993 78.2186665,17.9013344 78.256,17.696 L78.816,15.092 C78.8533335,14.8866656 78.9606658,14.7140007 79.138,14.574 C79.3153342,14.4339993 79.4973324,14.364 79.684,14.364 L83.184,14.364 C83.3893344,14.364 83.5479994,14.4339993 83.66,14.574 C83.7720006,14.7140007 83.8093335,14.8866656 83.772,15.092 L83.184,17.696 C83.1653332,17.9013344 83.0720008,18.0739993 82.904,18.214 C82.7359992,18.3540007 82.5493344,18.424 82.344,18.424 L78.844,18.424 Z M75.316,35 C75.1106656,35 74.9566672,34.9300007 74.854,34.79 C74.7513328,34.6499993 74.7186665,34.4866676 74.756,34.3 L77.528,21.14 C77.5653335,20.9533324 77.6679992,20.7900007 77.836,20.65 C78.0040008,20.5099993 78.1906656,20.44 78.396,20.44 L81.896,20.44 C82.1013344,20.44 82.2553328,20.5053327 82.358,20.636 C82.4606672,20.7666673 82.4933335,20.9346656 82.456,21.14 L79.656,34.3 C79.6186665,34.5053344 79.5206675,34.6733327 79.362,34.804 C79.2033325,34.9346673 79.0213344,35 78.816,35 L75.316,35 Z M89.676,35.28 C87.734657,35.28 86.2366719,34.8366711 85.182,33.95 C84.1273281,33.0633289 83.6,31.7520087 83.6,30.016 C83.6,29.3813302 83.6653327,28.7466698 83.796,28.112 L83.992,27.244 C84.533336,25.0226556 85.5926588,23.2866729 87.17,22.036 C88.7473412,20.7853271 90.6466556,20.16 92.868,20.16 C94.8653433,20.16 96.367995,20.6499951 97.376,21.63 C98.384005,22.6100049 98.888,23.9399916 98.888,25.62 C98.888,26.2173363 98.8133341,26.8893296 98.664,27.636 L98.524,28.336 C98.4679997,28.5413344 98.3560008,28.7139993 98.188,28.854 C98.0199992,28.9940007 97.8333344,29.064 97.628,29.064 L88.752,29.064 L88.724,29.232 C88.6679997,29.5306682 88.64,29.8293318 88.64,30.128 C88.64,30.7066696 88.7799986,31.1686649 89.06,31.514 C89.3400014,31.8593351 89.7599972,32.032 90.32,32.032 C90.7680022,32.032 91.1459985,31.9433342 91.454,31.766 C91.6850012,31.6329993 91.9133747,31.4711255 92.1391246,31.2803755 L92.364,31.08 C92.5693344,30.8933324 92.7326661,30.7766669 92.854,30.73 C92.9753339,30.6833331 93.1386656,30.66 93.344,30.66 L97.04,30.66 C97.2080008,30.66 97.3386662,30.7159994 97.432,30.828 C97.5253338,30.9400006 97.5533335,31.0799992 97.516,31.248 C97.3853327,31.7520025 96.9746701,32.3213302 96.284,32.956 C95.5933299,33.5906698 94.6740057,34.1366644 93.526,34.594 C92.3779943,35.0513356 91.0946738,35.28 89.676,35.28 Z M93.82,26.208 L93.848,26.152 C93.922667,25.8533318 93.96,25.5360017 93.96,25.2 C93.96,24.6026637 93.8060015,24.1406683 93.498,23.814 C93.1899985,23.4873317 92.7560028,23.324 92.196,23.324 C91.4866631,23.324 90.8846691,23.5759975 90.39,24.08 C89.8953309,24.5840025 89.5546676,25.2746623 89.368,26.152 L89.368,26.208 L93.82,26.208 Z M124.948,15.12 C125.153334,15.12 125.311999,15.1899993 125.424,15.33 C125.536001,15.4700007 125.573334,15.6333324 125.536,15.82 L121.588,34.3 C121.550666,34.5053344 121.448001,34.6733327 121.28,34.804 C121.111999,34.9346673 120.934668,35 120.748,35 L117.416,35 C117.210666,35 117.052001,34.9300007 116.94,34.79 C116.827999,34.6499993 116.790666,34.4866676 116.828,34.3 L117.024,33.432 C116.38933,34.0480031 115.731337,34.5099985 115.05,34.818 C114.368663,35.1260015 113.542672,35.28 112.572,35.28 C110.985325,35.28 109.758004,34.850671 108.89,33.992 C108.021996,33.133329 107.588,31.9013414 107.588,30.296 C107.588,29.8479978 107.634666,29.3160031 107.728,28.7 C107.858667,28.0279966 108.007999,27.3653366 108.176,26.712 C108.698669,24.6586564 109.566661,23.0533391 110.78,21.896 C111.993339,20.7386609 113.495991,20.16 115.288,20.16 C116.202671,20.16 116.995997,20.3046652 117.668,20.594 C118.340003,20.8833348 118.862665,21.2799975 119.236,21.784 L120.496,15.82 C120.533334,15.6146656 120.635999,15.4466673 120.804,15.316 C120.972001,15.1853327 121.149332,15.12 121.336,15.12 L124.948,15.12 Z M107.396,15.12 C107.601334,15.12 107.759999,15.1853327 107.872,15.316 C107.984001,15.4466673 108.021334,15.6146656 107.984,15.82 L104.036,34.3 C103.998666,34.5053344 103.900667,34.6733327 103.742,34.804 C103.583333,34.9346673 103.401334,35 103.196,35 L99.696,35 C99.4906656,35 99.3366672,34.9300007 99.234,34.79 C99.1313328,34.6499993 99.0986665,34.4866676 99.136,34.3 L103.056,15.82 C103.093334,15.6146656 103.195999,15.4466673 103.364,15.316 C103.532001,15.1853327 103.709332,15.12 103.896,15.12 L107.396,15.12 Z M116.324,24.052 C115.521329,24.052 114.882002,24.2993309 114.406,24.794 C113.929998,25.2886691 113.561335,25.9746623 113.3,26.852 C113.113332,27.4866698 112.992,28.0653307 112.936,28.588 C112.88,28.8866682 112.852,29.1853318 112.852,29.484 C112.852,30.0813363 112.987332,30.5479983 113.258,30.884 C113.528668,31.2200017 113.990663,31.388 114.644,31.388 C115.465337,31.388 116.137331,31.1313359 116.66,30.618 C117.182669,30.1046641 117.546666,29.4560039 117.752,28.672 C117.957334,27.8879961 118.106666,27.1880031 118.2,26.572 C118.2224,26.3927991 118.23808,26.2438395 118.24704,26.1251199 L118.24704,26.1251199 L118.256,25.928 C118.256,25.3679972 118.097335,24.9153351 117.78,24.57 C117.462665,24.2246649 116.977337,24.052 116.324,24.052 Z" id="Yield" fill="#000000" fill-rule="nonzero"></path>
                <g id="Group-8">
                    <rect id="Rectangle-Copy-7" fill="#F8E71C" x="0" y="0" width="51" height="50" rx="15"></rect>
                    <g id="noun_Avocado_1869247-Copy" transform="translate(8.000000, 6.000000)" fill="#000000" fill-rule="nonzero">
                        <g id="Group">
                            <path d="M31.2435368,0.159522857 C30.3907295,1.07047167 29.6777587,2.5654919 29.4920314,3.7949931 C28.5821317,3.61615976 27.5412079,3.7309919 26.7499176,3.89154548 C25.2241217,4.20692643 23.5509817,4.85750976 21.8112522,5.69952405 C18.363032,7.36848833 14.6986544,9.77256333 11.9195541,11.7583621 C6.64474819,13.8600502 2.51790584,18.2449643 0.821903135,22.813319 C-0.0324892973,25.1147631 -0.280041459,27.491881 0.362494216,29.6312298 C1.0050253,31.7704905 2.57176827,33.6411048 5.07145792,34.8343548 C12.5562868,37.3286393 18.312519,36.3652298 22.7157166,33.6750214 C27.2638185,30.7803 30.4512909,25.8913226 32.5643404,20.2876286 C33.5695274,17.3663905 33.9774906,14.4372943 34.0000006,11.8687895 C34.0000006,9.06357286 33.3661293,6.26685738 31.2578904,4.63683119 C31.3367795,3.48000857 31.9912658,2.00613119 32.6217682,1.33268714 L31.2435368,0.159522857 Z M29.7935195,5.78228952 C30.2391263,6.00428952 30.8323941,6.43159548 31.0855885,7.10715381 C31.9086274,10.2091633 30.3725304,13.740461 27.8697122,17.2787798 C25.3408612,20.8538607 21.9025468,24.3426964 19.3562501,27.2986 C15.8965479,31.2432405 10.2318722,34.1994964 5.84669008,33.2193048 C3.77716476,32.217794 2.63195286,30.810825 2.12833016,29.1341083 C1.62072854,27.4440012 1.78887232,25.4561321 2.54467395,23.4202512 C4.056268,19.3486214 7.93425792,15.2157038 12.7235025,13.3452657 C12.794976,13.3170752 12.8626866,13.2795907 12.9244931,13.2348383 C15.6573074,11.2780229 19.3171041,8.88962881 22.6295541,7.28638357 C24.2857814,6.484805 25.8621639,5.88007524 27.1375268,5.61645024 C28.1117739,5.40744429 28.8976287,5.40599071 29.7935195,5.78228952 L29.7935195,5.78228952 Z M21.595899,8.44602524 C19.3719039,9.68385143 17.2614274,11.0257181 16.3557409,11.8964074 C16.0025039,12.2190562 15.9927174,12.8248871 16.3353868,13.1579312 C16.6780333,13.4910193 17.3083336,13.4882883 17.6478558,13.152205 C18.1204052,12.697986 20.3743295,11.1691371 22.5147398,9.97791333 C23.9630433,9.23989548 25.339956,8.36325976 26.8791452,8.0869931 C27.3414441,8.21702167 27.8851731,7.93102048 28.0204839,7.48658 C28.1557901,7.04222762 27.8582809,6.51947048 27.3959866,6.3894419 C25.2720801,6.25765143 23.2022612,7.55547048 21.595899,8.44602524 L21.595899,8.44602524 Z M8.12941332,18.0379405 C4.86822062,20.7251095 4.12983205,25.4877143 6.73682386,28.6097655 C6.40685386,28.7066262 6.0833163,28.8057774 5.73186197,28.8995988 C5.23558603,28.9916143 4.88545954,29.5341048 5.02011792,30.002419 C5.15478089,30.4706893 5.74503008,30.7632976 6.21998711,30.597194 C10.4358585,29.471469 13.3592979,28.0877571 15.5661322,26.084119 C17.772962,24.080525 19.2061447,21.510919 20.6052952,18.1483238 C20.8496909,17.5806821 20.2776179,16.8583717 19.6434031,16.9337812 C19.3179541,16.978049 19.0261285,17.2036345 18.9112176,17.4996345 C18.7754841,17.8258512 18.6449241,18.130969 18.509232,18.4381571 C15.1986979,16.231486 11.1861374,15.7555074 8.12941332,18.0379405 L8.12941332,18.0379405 Z M13.4299604,26.873266 C13.359206,26.9347718 13.2757354,26.9621612 13.1795462,26.955435 C13.0833569,26.9487088 13.0045106,26.9099691 12.9430047,26.8392147 L12.2907424,25.9385044 L6.38761271,23.5321232 C6.35238252,23.5175772 6.3207893,23.494224 6.2928321,23.462063 C6.24250914,23.404173 6.22008051,23.3361522 6.22554556,23.2579984 C6.2310106,23.1798446 6.26268762,23.1156072 6.32057756,23.0652843 L8.13445343,21.4885061 C8.2438011,21.3934516 8.35600601,21.3439069 8.47107152,21.3398706 C8.58613703,21.3358344 8.67889859,21.348362 8.74935897,21.377454 L11.3999973,22.4780456 L10.6790142,19.7000303 C10.6600115,19.6262068 10.6605157,19.5326045 10.6805267,19.4192206 C10.7005377,19.3058366 10.7652161,19.2016189 10.8745638,19.1065645 L12.6884396,17.5297862 C12.7463296,17.4794633 12.8143504,17.4570346 12.8925042,17.4624997 C12.970658,17.4679647 13.0348954,17.4996418 13.0852183,17.5575317 C13.1131755,17.5896928 13.1319045,17.6242287 13.1414058,17.6611404 L14.7028114,23.8417248 L15.3550737,24.7424351 C15.4165795,24.8131895 15.4439689,24.8966601 15.4372427,24.9928493 C15.4305165,25.0890386 15.3917768,25.1678849 15.3210224,25.2293908 L13.4299604,26.873266 Z" id="Shape"></path>
                        </g>
                    </g>
                </g>
            </g>
        </g>
    </g>
</svg>