<?xml version="1.0" encoding="UTF-8"?>
<svg width="950px" height="200px" viewBox="0 0 950 200" version="1.1" xmlns="http://www.w3.org/2000/svg" xmlns:xlink="http://www.w3.org/1999/xlink">
    <!-- Generator: Sketch 59.1 (86144) - https://sketch.com -->
    <title>fulcrum_logo_typography</title>
    <desc>Created with Sketch.</desc>
    <g id="Page-1" stroke="none" stroke-width="1" fill="none" fill-rule="evenodd">
        <g id="fulcrum_logo_typography" fill-rule="nonzero">
            <path d="M33.33,41.68 C21.9338628,50.7127816 13.0270504,62.5001976 7.45,75.93 C1.82729983,88.7114067 -0.651873087,102.653754 0.22,116.59 L24.56,135.11 L33.33,41.68 Z" id="Path" fill="#00B4AF"></path>
            <path d="M8,147.35 C13.2475195,159.384912 21.216588,170.037722 31.28,178.47 L24.52,135.11 L8,147.35 Z" id="Path" fill="#009FB7"></path>
            <path d="M0.22,116.59 C0.880612727,125.898773 2.9962908,135.046466 6.49,143.7 C6.99,144.94 7.49,146.15 8.04,147.35 L24.56,135.11 L0.22,116.59 Z" id="Path" fill="#04B5AD"></path>
            <path d="M93.64,166.66 L73,198 C83.6555596,199.990327 94.5974557,199.878225 105.21,197.67 L99.5,165.82 C97.563189,166.205149 95.6070145,166.485556 93.64,166.66 L93.64,166.66 Z" id="Path" fill="#117BBF"></path>
            <polygon id="Path" fill="#0688BF" points="100.59 10.3 91.57 49.1 99.02 46.12 116.33 3.99"></polygon>
            <path d="M34.69,126.31 C30.95,113.84 31.79,101.51 37.23,88.79 C42.369807,76.1650997 52.149614,65.9880887 64.56,60.35 L43.83,34.61 C40.1618392,36.7067606 36.652423,39.0697675 33.33,41.68 L24.56,135.11 L34.69,126.31 Z" id="Path" fill="#009CB7"></path>
            <polygon id="Path" fill="#0095BA" points="72.53 21.55 84.69 51.86 91.57 49.1 100.59 10.3"></polygon>
            <path d="M67.61,59 C69.17,58.36 70.78,57.78 72.38,57.26 L76.45,55.96 L64.34,25.77 L60.78,27 C59.14,27.56 57.5033333,28.1633333 55.87,28.81 C51.7406696,30.4673182 47.7310767,32.4086294 43.87,34.62 L64.6,60.36 C65.56,59.89 66.57,59.43 67.61,59 Z" id="Path" fill="#0095BA"></path>
            <polygon id="Path" fill="#2471B8" points="124.74 0.62 124.4 0.75 139.76 29.77 154.16 24 129.7 1.82"></polygon>
            <path d="M41,140.53 C39.2481959,137.688617 37.7459097,134.700774 36.51,131.6 C35.79,129.83 35.18,128.07 34.65,126.31 L24.52,135.11 L41,140.53 Z" id="Path" fill="#008BBC"></path>
            <path d="M82.74,96.58 C79.5270875,97.8586148 76.9559863,100.364611 75.5954048,103.54368 C74.2348233,106.722749 74.1968916,110.312893 75.49,113.52 L77.95,119.64 C80.2148915,125.30277 86.1119335,128.629733 92.13,127.64 L85.76,95.36 L82.74,96.58 Z" id="Path" fill="#008BBC"></path>
            <path d="M66.71,162.08 C55.41,157.25 47,150.15 41,140.53 L24.52,135.11 L31.28,178.47 C38.0942391,184.087837 45.6907081,188.682774 53.83,192.11 C58.5598663,194.141113 63.4499382,195.776711 68.45,197 C69.98,197.37 71.51,197.68 73.04,198 L93.64,166.7 C84.4174316,167.454124 75.1538713,165.864905 66.71,162.08 L66.71,162.08 Z" id="Path" fill="#028CBC"></path>
            <polygon id="Path" fill="#047CC0" points="116.33 3.99 99.02 46.12 139.76 29.77 124.4 0.75"></polygon>
            <path d="M111.28,162.11 C110.64,162.38 109.99,162.65 109.35,162.9 C108.91,163.07 108.47,163.22 108.02,163.38 L121.8,169 L119.72,163.83 L111.28,162.11 Z" id="Path" fill="#3162AD"></path>
            <path d="M99.54,165.78 L105.25,197.63 C110.778629,196.4823 116.193534,194.842434 121.43,192.73 C123.12,192.05 124.77,191.33 126.38,190.59 L129.8,189 L121.8,169 L108,163.38 C105.243286,164.38828 102.415513,165.190485 99.54,165.78 L99.54,165.78 Z" id="Path" fill="#2C69B2"></path>
            <path d="M131.14,91.21 C128.439629,84.5489529 120.86145,81.3254324 114.19,84 L85.76,95.41 L92.13,127.69 C93.0748482,127.53755 94.0002975,127.282716 94.89,126.93 L125.63,114.6 L134.36,100.22 C134.211708,99.2439861 133.953396,98.287898 133.59,97.37 L131.14,91.21 Z" id="Path" fill="#1479BE"></path>
            <path d="M126.35,114.27 C131.975362,112.012703 135.29422,106.167365 134.35,100.18 L125.62,114.56 L126.35,114.27 Z" id="Path" fill="#2E66B0"></path>
            <path d="M117.79,159 L114,160.9 C113.12,161.32 112.23,161.72 111.33,162.11 L119.77,163.87 L117.79,159 Z" id="Path" fill="#2E66B0"></path>
            <polygon id="Path" fill="#2C69B2" points="154.16 24 179.37 13.89 129.7 1.82"></polygon>
            <path d="M381.2,69.8 C380.264816,68.9128446 379.007484,68.4467645 377.72,68.51 L360.06,68.51 C358.810712,68.4799623 357.59991,68.9434442 356.69,69.8 C355.745451,70.7004095 355.238283,71.966504 355.3,73.27 L355.3,127.86 C355.3,135.4 353.28,141.353333 349.24,145.72 C345.2,150.086667 339.743333,152.27 332.87,152.27 C318.71,152.27 311.63,144.133333 311.63,127.86 L311.63,73.27 C311.632662,72.0067552 311.132019,70.7944832 310.238768,69.9012322 C309.345517,69.0079813 308.133245,68.5073377 306.87,68.51 L305.69,68.51 L284.24,76.51 L284.24,129.03 C284.24,142.923333 287.746667,153.84 294.76,161.78 C301.76,169.72 311.42,174.87 323.54,173.68 C344.54,171.63 350.72,165.01 356.49,153.57 L356.49,167 C356.487338,168.263245 356.987981,169.475517 357.881232,170.368768 C358.774483,171.262019 359.986755,171.762662 361.25,171.76 L377.72,171.76 C379.026474,171.821991 380.295747,171.315011 381.2,170.37 C382.055625,169.459506 382.518955,168.249102 382.49,167 L382.49,73.27 C382.554009,71.9853787 382.087626,70.7308436 381.2,69.8 Z" id="Path" fill="#000000"></path>
            <path d="M266.78,25.5499894 L253.08,25.5499894 C239.98,25.5499894 230.19,28.4933333 223.71,34.38 C217.23,40.2666667 213.993333,49.23 213.999989,61.27 L213.999989,167.66 C213.997338,168.923245 214.497981,170.135517 215.391232,171.028768 C216.284483,171.922019 217.496755,172.422662 218.76,172.42 L235.24,172.42 C236.543496,172.481717 237.80959,171.974549 238.71,171.03 C239.565625,170.119506 240.028955,168.909102 240,167.66 L240,90.45 L264.81,90.45 C266.074881,90.4580483 267.290287,89.9591346 268.184711,89.0647108 C269.079135,88.1702871 269.578048,86.9548806 269.57,85.69 L269.57,74 C269.580737,72.7333925 269.083011,71.5153984 268.188293,70.6188001 C267.293574,69.7222018 266.076627,69.2219207 264.81,69.23 L240,69.23 L240,62.29 C240,56.99 241.06,53.0833333 243.18,50.57 C245.3,48.0566667 248.936667,46.8 254.09,46.8 L266.8,46.8 C268.063245,46.8026623 269.275517,46.3020187 270.168768,45.4087678 C271.062019,44.5155168 271.562662,43.3032448 271.560011,42.04 L271.560011,30.31 C271.562662,29.0467552 271.062019,27.8344832 270.168768,26.9412322 C269.275517,26.0479813 268.063245,25.5473377 266.8,25.5499894 L266.78,25.5499894 Z" id="Path" fill="#000000"></path>
            <path d="M482.86,168.49 C510.237563,182.099698 543.465683,170.995335 557.16,143.66 C560.421504,136.891491 562.327299,129.550276 562.77,122.05 C562.854242,120.873221 562.345026,119.73215 561.41289,119.008941 C560.480755,118.285733 559.248944,118.076006 558.13,118.45 L543.82,123.26 C542.64251,123.660196 541.759214,124.645848 541.49,125.86 C540.870857,128.822722 539.897181,131.700103 538.59,134.43 C534.622525,142.740188 527.377109,149.025586 518.59,151.78 C509.880978,154.818877 500.305511,154.142664 492.11,149.91 C488.544237,148.160625 485.306811,145.809516 482.54,142.96 L462,150.64 C467.289857,158.296378 474.47794,164.447255 482.86,168.49 L482.86,168.49 Z" id="Path" fill="#000000"></path>
            <path d="M476.68,103.65 C480.658836,95.389201 487.857845,89.126678 496.59,86.33 C505.201191,83.2086942 514.723176,83.8137823 522.87,88 C525.562074,89.3816227 528.077029,91.0840018 530.36,93.07 C531.300788,93.8834714 532.601809,94.1383497 533.78,93.74 L548.09,88.94 C549.209932,88.5653124 550.067347,87.6539901 550.373135,86.5133184 C550.678924,85.3726467 550.392334,84.1546425 549.61,83.27 C544.734846,77.5571504 538.790063,72.852279 532.11,69.42 C518.376667,62.6 504.32,61.6266667 489.94,66.5 C464.567739,75.2111281 448.982519,100.741323 452.83,127.29 L473,119.82 C472.869895,114.208543 474.134349,108.652503 476.68,103.65 Z" id="Path" fill="#000000"></path>
            <polygon id="Path" fill="#00B4AF" points="435.08 144.87 435.08 139.86 435.08 133.89 414.99 141.35 435.08 158.26"></polygon>
            <path d="M361.25,172.42 L377.72,172.42 C379.031131,172.474268 380.301125,171.956052 381.2,171 C382.055625,170.089506 382.518955,168.879102 382.49,167.63 L382.49,153.43 L356.489989,163.08 L356.489989,167.66 C356.487338,168.923245 356.987981,170.135517 357.881232,171.028768 C358.774483,171.922019 359.986755,172.422662 361.25,172.42 L361.25,172.42 Z" id="Path" fill="#42BB9F"></path>
            <path d="M435.08,160.71 L435.08,158.26 L415,141.35 L408.89,143.62 L408.89,167.62 C408.890888,168.529477 409.139821,169.421488 409.61,170.2 L435.08,160.71 Z" id="Path" fill="#04B5AD"></path>
            <polygon id="Path" fill="#345AA8" points="583.39 105.23 586.66 104.01 582.86 102.32"></polygon>
            <polygon id="Path" fill="#345CA9" points="586.66 104.01 590.94 102.41 582.86 102.32"></polygon>
            <path d="M474.77,130 C473.680889,126.712601 473.084424,123.282084 473,119.82 L452.88,127.3 C453.372261,130.463288 454.124817,133.58054 455.13,136.62 C455.13,136.76 455.22,136.89 455.27,137.03 C456.88102,141.852825 459.145423,146.432101 462,150.64 L475.65,145.54 L481,141.3 C478.259995,138.032976 476.163092,134.276873 474.82,130.23 C474.83,130.16 474.8,130.09 474.77,130 Z" id="Path" fill="#009CB7"></path>
            <polygon id="Path" fill="#2471B8" points="587.92 77.11 582.19 79.24 582.19 92.4 582.19 92.4 582.19 100.89 582.86 102.32"></polygon>
            <path d="M649.87,80.37 L649.87,74 L649.87,74 C649.865652,73.4116065 649.767763,72.8276478 649.58,72.27 C649.527796,72.116998 649.467716,71.9667975 649.4,71.82 C649.33,71.67 649.29,71.5 649.21,71.36 C649.03501,71.0584262 648.823405,70.7796448 648.58,70.53 C647.646084,69.6408116 646.387848,69.1743966 645.1,69.24 L643.44,69.24 L634.28,86.24 L649.87,80.37 Z" id="Path" fill="#3856A5"></path>
            <path d="M482.52,143 C482,142.47 481.52,141.91 481.03,141.34 L475.64,145.58 L482.52,143 Z" id="Path" fill="#008BBC"></path>
            <polygon id="Path" fill="#047CC0" points="582.19 100.89 582.19 102.48 582.86 102.32"></polygon>
            <polygon id="Path" fill="#1479BE" points="582.19 102.48 582.19 103.31 582.86 102.32"></polygon>
            <polygon id="Path" fill="#2E66B0" points="582.19 103.31 582.19 105.68 583.39 105.23 582.86 102.32"></polygon>
            <polygon id="Path" fill="#3065AF" points="587.92 77.11 582.86 102.32 590.94 102.41 611.71 94.64 593.16 75.17"></polygon>
            <path d="M610.26,79.88 C610.05,80.11 609.82,80.31 609.61,80.55 C609.388259,80.8038201 609.032516,80.8938085 608.716756,80.7759545 C608.400997,80.6581004 608.191211,80.3570348 608.19,80.02 L608.19,78.53 L596.55,73.91 L593.16,75.17 L611.71,94.64 L630.77,87.51 L610.63,79.51 L610.26,79.88 Z" id="Path" fill="#3060AB"></path>
            <path d="M636.72,69.21 C635.24,69.21 633.8,69.28 632.39,69.41 C631.92,69.41 631.47,69.54 631.01,69.59 C630.08,69.71 629.16,69.82 628.27,69.99 C627.74,70.09 627.27,70.23 626.72,70.35 C625.94,70.54 625.15,70.72 624.4,70.95 C623.87,71.11 623.4,71.31 622.86,71.5 C622.16,71.75 621.46,72 620.78,72.3 C620.27,72.52 619.78,72.77 619.3,73.02 C618.82,73.27 618.03,73.67 617.42,74.02 C616.81,74.37 616.48,74.61 616.02,74.92 C615.56,75.23 614.87,75.7 614.31,76.13 C613.75,76.56 613.44,76.83 613.01,77.2 C612.58,77.57 612.01,78.13 611.46,78.63 C611.17,78.91 610.9,79.2 610.63,79.49 L630.77,87.49 L634.28,86.18 L643.44,69.18 L636.72,69.18 L636.72,69.21 Z" id="Path" fill="#345EAA"></path>
            <path d="M608.19,74.17 C608.233846,72.840076 607.731598,71.5501296 606.8,70.6 C606.667001,70.4782819 606.526743,70.3647402 606.38,70.26 L596.55,73.91 L608.19,78.53 L608.19,74.17 Z" id="Path" fill="#345EAA"></path>
            <path d="M430.32,31.5 L428.32,31.5 L408.85,38.78 L408.85,143.62 L435.05,133.89 L435.05,36.26 C435.143397,34.9711991 434.671974,33.7054455 433.758264,32.7917358 C432.844554,31.8780261 431.578801,31.4066032 430.29,31.5 L430.32,31.5 Z" id="Path" fill="#000000"></path>
            <path d="M766.19,74 C766.286457,72.7095297 765.816389,71.4409911 764.902304,70.5249857 C763.988219,69.6089802 762.72067,69.1362514 761.43,69.23 L743.76,69.23 C742.510898,69.2010447 741.300494,69.6643748 740.39,70.52 C739.443868,71.4234958 738.936676,72.693302 739,74 L739,128.58 C739,136.12 737,142.073333 733,146.44 C729,150.806667 723.523333,152.993333 716.57,153 C702.41,153 695.33,144.863333 695.33,128.59 L695.33,74 C695.340737,72.7333925 694.843011,71.5153984 693.948293,70.6188001 C693.053574,69.7222018 691.836627,69.2219207 690.57,69.23 L684.44,69.23 L668,75.38 L668,129.75 C668,143.643333 671.503333,154.56 678.51,162.5 C685.516667,170.44 695.11,174.41 707.29,174.41 C721.956667,174.41 732.956667,169.446667 740.29,159.52 L740.29,167.66 C740.265853,168.927504 740.769297,170.148087 741.68,171.03 C741.88907,171.233097 742.113027,171.420285 742.35,171.59 L766.29,162.59 L766.19,74 Z" id="Path" fill="#000000"></path>
            <path d="M582.19,105.68 L582.19,167.68 C582.165853,168.947504 582.669297,170.168087 583.58,171.05 L583.64,171.11 C584.520783,171.978587 585.713104,172.457677 586.95,172.440472 L588.4,172.440472 L609.4,164.59 L609.4,121.16 C609.318052,117.674848 610.032882,114.216987 611.49,111.05 C612.317163,109.354757 613.422458,107.810049 614.76,106.48 C618.326667,102.9 623.22,101.113333 629.44,101.12 L645.1,101.12 C645.43532,101.119216 645.769929,101.089101 646.1,101.03 C647.035241,100.87998 647.89381,100.422546 648.54,99.73 C649.395302,98.8152799 649.858367,97.6019782 649.83,96.35 L649.83,80.35 L582.19,105.68 Z" id="Path" fill="#000000"></path>
            <path d="M950,110.69 C950,96.5433333 946.56,85.76 939.68,78.34 C934.718309,72.8925933 928.100845,69.2306722 920.85,67.92 C918.28672,67.451621 915.685705,67.2206429 913.08,67.23 L913.08,67.23 C911.84,67.23 910.63,67.34 909.41,67.45 C904.079782,67.9108091 898.906943,69.4919668 894.23,72.09 C888.670746,75.0787731 884.010262,79.497602 880.73,84.89 C874.91,73.1233333 864.666667,67.2366667 850,67.23 C837.946667,67.23 828.353333,71.7266667 821.22,80.72 L821.22,74 C821.22,72.85 820.87,66.22 820.34,65.44 L795.999989,74.52 L795.999989,167.66 C795.997338,168.923245 796.497981,170.135517 797.391232,171.028768 C798.284483,171.922019 799.496755,172.422662 800.76,172.42 L817.63,172.42 C818.936474,172.481991 820.205747,171.975011 821.11,171.03 C821.965625,170.119506 822.428955,168.909102 822.4,167.66 L822.4,112.28 C822.4,104.08 824.22,98.08 827.86,94.28 C831.251024,90.6368307 836.023295,88.5957225 841,88.66 C846.16762,88.491493 851.158173,90.5532835 854.7,94.32 C858.266667,98.0866667 860.053333,104.086667 860.06,112.32 L860.06,167.7 C860.057338,168.963245 860.557981,170.175517 861.451232,171.068768 C862.344483,171.962019 863.556755,172.462662 864.82,172.46 L881.49,172.46 C882.817973,172.5143 884.102284,171.980085 885,171 C885.855625,170.089506 886.318955,168.879102 886.29,167.63 L886.29,112.28 C886.29,104.08 888.11,98.08 891.75,94.28 C895.145663,90.6090472 899.939823,88.5518108 904.94,88.62 C906.444738,88.6175072 907.945818,88.7682853 909.42,89.07 C910.26884,89.2395886 911.104342,89.470187 911.92,89.76 L912.15,89.84 C912.956245,90.128302 913.738643,90.4793779 914.49,90.89 L914.49,90.89 C915.164078,91.269904 915.812172,91.6941716 916.43,92.16 L916.88,92.51 C917.521004,93.0135938 918.125827,93.5616103 918.69,94.15 C922.19,97.8566667 923.943333,103.876667 923.95,112.21 L923.95,167.59 C923.937658,168.855253 924.439257,170.07136 925.34,170.96 C925.480807,171.094107 925.631206,171.217769 925.79,171.33 L925.79,171.33 C926.180405,171.656241 926.627991,171.90716 927.11,172.07 L927.21,172.07 C927.693983,172.230726 928.200051,172.31507 928.71,172.32 L945.19,172.32 C946.493496,172.381717 947.75959,171.874549 948.66,170.93 L948.66,170.93 C948.93278,170.601184 949.161386,170.238105 949.34,169.85 C949.729568,169.148852 949.939158,168.362031 949.95,167.56 L950,110.69 Z" id="Path" fill="#000000"></path>
        </g>
    </g>
</svg>