<?xml version="1.0" encoding="UTF-8"?>
<svg width="813px" height="197px" viewBox="0 0 813 197" version="1.1" xmlns="http://www.w3.org/2000/svg" xmlns:xlink="http://www.w3.org/1999/xlink">
    <!-- Generator: Sketch 54.1 (76490) - https://sketchapp.com -->
    <title>Group 2</title>
    <desc>Created with Sketch.</desc>
    <defs>
        <polygon id="path-1" points="331.624289 150.605 811.624289 150.605 811.624289 56.605 331.624289 56.605"></polygon>
        <polygon id="path-3" points="332 146 812 146 812 52 332 52"></polygon>
    </defs>
    <g id="Page-1" stroke="none" stroke-width="1" fill="none" fill-rule="evenodd">
        <g id="Group-2" transform="translate(1.000000, 0.000000)">
            <g id="Group">
                <g id="Path">
                    <polyline stroke="#1ABC9C" points="120.12 196.06 120.12 91.88 0.09 0.92 0.09 196.06"></polyline>
                    <polyline stroke="#546979" points="157.06 196.06 157.06 91.88 277.09 0.92 277.09 196.06"></polyline>
                </g>
                <g id="Clipped" transform="translate(322.000000, 60.000000)"></g>
            </g>
            <g id="Group">
                <g id="Path">
                    <polyline stroke="#1ABC9C" points="120.12 196.06 120.12 91.88 0.09 0.92 0.09 196.06"></polyline>
                    <polyline stroke="#546979" points="157.06 196.06 157.06 91.88 277.09 0.92 277.09 196.06"></polyline>
                </g>
                <g id="Clipped" transform="translate(322.000000, 60.000000)"></g>
            </g>
            <mask id="mask-2" fill="white">
                <use xlink:href="#path-1"></use>
            </mask>
            <g id="Path"></g>
            <path d="M754.84489,57.0053245 C753.818097,56.9901807 752.826187,57.3782798 752.08151,58.0865374 C751.358377,58.8177128 750.967924,59.8149981 751.002065,60.8436303 L751.002065,146.432444 C750.98396,147.458251 751.372056,148.449515 752.08151,149.189537 C752.826187,149.897794 753.818097,150.285894 754.84489,150.27075 C755.870961,150.299855 756.864686,149.909521 757.597476,149.189537 C758.360286,148.476911 758.790814,147.477234 758.784866,146.432444 L758.784866,107.681773 L780.729989,107.681773 L801.012767,148.832737 C801.606327,150.210308 802.99265,151.072789 804.488581,150.995162 C806.149101,150.994379 807.626716,149.939692 808.16949,148.367815 C808.522943,147.400455 808.452387,146.328606 807.97519,145.416104 L789.246813,107.281725 C795.471072,106.413271 801.197577,103.396197 805.438493,98.7509548 C809.892955,94.0550218 812.253166,87.7488697 811.97844,81.2771364 C811.703714,74.8054031 808.817593,68.7226887 803.981242,64.422445 C798.70771,59.5233634 791.742398,56.8644588 784.551226,57.0053245 L754.84489,57.0053245 Z M798.408006,94.7724908 C794.743027,98.1626931 789.945982,100.029613 784.976853,99.9996447 L759,99.9996447 L759,65.0046578 L784.518124,65.0046578 C789.590337,64.8944097 794.512827,66.7448383 798.279988,70.1779235 C801.882456,73.2182595 803.975106,77.7083443 803.999779,82.4505626 C804.024452,87.192781 801.978638,91.7048419 798.408006,94.7832685 L798.408006,94.7724908 Z M715.052419,150.956868 C717.143662,150.847318 718.783103,149.120103 718.783103,147.026444 C718.783103,144.932784 717.143662,143.205569 715.052419,143.096019 L666.874072,143.096019 L666.874072,107.900121 L702.908067,107.900121 C705.076272,107.900121 706.83395,106.142824 706.83395,103.975089 C706.83395,101.807353 705.076272,100.050056 702.908067,100.050056 L666.874072,100.050056 L666.874072,64.8218088 L715.052419,64.9512055 C716.08525,64.9874464 717.087555,64.5975291 717.824264,63.8728998 C718.583775,63.1344181 719.008467,62.1177138 718.999872,61.0585219 C718.999595,60.0200017 718.574909,59.0266863 717.824264,58.3088424 C717.11203,57.537245 716.102325,57.1090973 715.052419,57.1334892 L662.937404,57.0040925 C661.885641,56.9527992 660.868299,57.3858706 660.176343,58.1794457 C659.407951,58.884865 658.979766,59.8863652 659.000736,60.9291252 L659.000736,147.064184 C659.051942,149.216313 660.784809,150.948805 662.937404,151 L715.052419,150.956868 Z M570.528822,149.13378 C571.306811,148.438825 571.740585,147.437712 571.715458,146.395128 L571.715458,121.402227 L583.398431,109.099855 L622.2338,149.80227 C623.333426,150.937121 625.005441,151.304748 626.480043,150.735893 C627.954646,150.167039 628.945978,148.771978 628.997627,147.193003 C629.034339,146.166784 628.643744,145.171277 627.918867,144.443568 L588.856958,103.4716 L626.613567,63.9336511 C627.354246,63.1897155 627.746036,62.1676673 627.692327,61.1195238 C627.705974,60.0947673 627.272831,59.1147884 626.505691,58.4347817 C625.746833,57.7172518 624.734401,57.3295449 623.690127,57.356572 C622.66093,57.3906684 621.688838,57.8376023 620.993226,58.5965132 L571.812546,110.178064 L571.812546,60.8607535 C571.777151,58.7143131 570.022891,56.9945737 567.875071,57.0007628 C566.843637,56.9801044 565.848187,57.3797868 565.117689,58.1078778 C564.387192,58.8359688 563.98453,59.8297915 564.002322,60.8607535 L564.002322,146.40591 C563.966016,147.428876 564.356775,148.420897 565.081082,149.144562 C565.795418,149.908164 566.796812,150.338231 567.842709,150.330593 C568.888427,150.353068 569.892306,149.920243 570.593547,149.144562 L570.528822,149.13378 Z M459.965435,150.989188 C461.571613,151.081751 463.042773,150.087537 463.565171,148.556476 L471.67801,128.99747 L519.420187,128.99747 L527.533026,148.556476 C528.051288,150.085852 529.518696,151.0805 531.122017,150.989188 C532.414479,150.974553 533.616795,150.320126 534.336245,149.239667 C535.055696,148.159207 535.199899,146.791453 534.721753,145.583161 L525.588093,123.569818 L525.588093,123.494134 L499.10048,59.3678399 C499.014516,59.1515988 498.907062,58.9137336 498.778116,58.6542443 C498.778116,58.6542443 498.692152,58.6542443 498.509479,58.3839429 L498.251587,58.0595813 C498.251587,58.0595813 498.10115,57.9730849 497.918477,57.800092 L497.660586,57.594663 C497.230767,57.2928199 496.738411,57.0931786 496.220691,57.0108121 L495.898327,57.0108121 L495.500744,57 L495.038688,57.0648723 L494.716324,57.0648723 C494.224743,57.1576351 493.759091,57.3568554 493.351647,57.6487233 L493.08301,57.8541523 L492.760646,58.1136416 L492.492009,58.4380032 L492.234117,58.7083046 C492.105172,58.9677939 491.986971,59.2056591 491.901007,59.4219002 L465.413394,123.494134 L465.413394,123.569818 L456.322717,145.550725 C455.892428,146.509641 455.892428,147.608372 456.322717,148.567288 C456.953989,150.010507 458.355906,150.957928 459.922453,151 L459.965435,150.989188 Z M475,120.989192 L495.478657,71 L516,121 L475,120.989192 Z M339.835206,75.0097038 L375.170807,133.300515 L375.235663,133.365463 L375.235663,133.430411 C375.332343,133.53007 375.419218,133.638818 375.495086,133.755151 L375.754509,134.014942 L376.013932,134.285559 C376.135426,134.358681 376.247897,134.445879 376.34902,134.545351 C376.565206,134.675247 376.608444,134.696896 376.478732,134.610299 C376.478732,134.610299 376.554397,134.610299 376.554397,134.675247 L376.673299,134.675247 C376.800938,134.754349 376.934678,134.823123 377.073244,134.880916 L377.397523,135.010811 C377.527275,135.049295 377.662169,135.06755 377.797467,135.064935 C377.899731,135.121495 378.015944,135.147774 378.132555,135.140707 C378.384772,135.227305 378.658608,135.227305 378.910825,135.140707 C379.027435,135.147774 379.143649,135.121495 379.245913,135.064935 C379.377702,135.068231 379.509144,135.049949 379.635048,135.010811 C379.775568,135.010811 379.883661,134.91339 379.970136,134.880916 C380.108702,134.823123 380.242441,134.754349 380.37008,134.675247 C380.543029,134.58865 380.607885,134.567 380.553838,134.610299 C380.499792,134.653598 380.467364,134.675247 380.694359,134.545351 C380.793877,134.448533 380.902471,134.361535 381.018638,134.285559 C381.11395,134.200752 381.204184,134.11039 381.28887,134.014942 L381.548294,133.755151 C381.624162,133.638818 381.711037,133.53007 381.807717,133.430411 L381.807717,133.365463 L381.872573,133.300515 L417.208173,75.0097038 L417.208173,147.091136 C417.178688,148.139407 417.567712,149.156202 418.289103,149.916373 C419.028281,150.62883 420.019723,151.018183 421.045475,150.998839 C422.092739,151.001724 423.09794,150.586386 423.838471,149.844803 C424.579001,149.10322 424.99375,148.09659 424.990869,147.047837 L424.990869,60.9484664 C425.119705,59.1430758 423.871755,57.5296254 422.093977,57.203133 C420.390474,56.6068648 418.509361,57.3659339 417.694592,58.9783777 L378.489262,123.699039 L339.30555,58.9783777 C338.486676,57.3643271 336.601918,56.6056518 334.895356,57.203133 C333.121915,57.5344491 331.879674,59.1465324 332.009273,60.9484664 L332.009273,147.091136 C331.978582,148.139613 332.367777,149.156856 333.090203,149.916373 C333.855809,150.635353 334.872963,151.024131 335.92224,150.998839 C336.948205,151.019379 337.940088,150.629853 338.678611,149.916373 C339.400002,149.156202 339.789026,148.139407 339.759541,147.091136 L339.835206,75.0097038 Z" id="Shape" fill="#546979" fill-rule="nonzero" mask="url(#mask-2)"></path>
            <mask id="mask-4" fill="white">
                <use xlink:href="#path-3"></use>
            </mask>
            <g id="Path"></g>
        </g>
    </g>
</svg>