<?xml version="1.0" encoding="UTF-8"?>
<svg width="26px" height="36px" viewBox="0 0 26 36" version="1.1" xmlns="http://www.w3.org/2000/svg" xmlns:xlink="http://www.w3.org/1999/xlink">
    <!-- Generator: Sketch 58 (84663) - https://sketch.com -->
    <title>noun_notification_2139043</title>
    <desc>Created with Sketch.</desc>
    <g id="Page-1" stroke="none" stroke-width="1" fill="none" fill-rule="evenodd">
        <g id="noun_notification_2139043" transform="translate(13.000000, 18.000000) scale(-1, 1) translate(-13.000000, -18.000000) " fill="#000000" fill-rule="nonzero">
            <path d="M18,31 L8,31 C8,33.75 10.25,36 13,36 C15.75,36 18,33.75 18,31 Z" id="Path"></path>
            <path d="M14.95,2.78571429 L16,3 C16,1.32857143 14.45,0 12.5,0 C10.55,0 9,1.32857143 9,3 L10.05,2.78571429 C11.65,2.52857143 13.35,2.52857143 14.95,2.78571429 Z" id="Path"></path>
            <path d="M4.82616822,11 L2,23 L26,23 L23.1738318,11 C22.3663551,6.34883721 18.5084112,3 13.9775701,3 C9.44672897,3 5.58878505,6.34883721 4.82616822,11 Z" id="Path"></path>
            <path d="M25.6975606,25 L0.257492293,25 L0.0777038247,25.6363636 L0.0777038247,25.7272727 C-0.147031761,26.7727273 0.122650942,27.8636364 0.796857699,28.6818182 C1.47106446,29.5 2.45990103,30 3.53863184,30 L22.4613682,30 C23.540099,30 24.5289355,29.5454545 25.2031423,28.6818182 C25.8773491,27.8636364 26.1470318,26.7727273 25.9222962,25.7272727 L25.6975606,25 Z" id="Path"></path>
        </g>
    </g>
</svg>