<?xml version="1.0" encoding="UTF-8"?>
<svg width="120px" height="120px" viewBox="0 0 120 120" version="1.1" xmlns="http://www.w3.org/2000/svg" xmlns:xlink="http://www.w3.org/1999/xlink">
    <!-- Generator: Sketch 54.1 (76490) - https://sketchapp.com -->
    <title>Wallet</title>
    <desc>Created with Sketch.</desc>
    <g id="Wallet" stroke="none" stroke-width="1" fill="none" fill-rule="evenodd">
        <rect id="bg" fill="#1A1919" x="0" y="0" width="120" height="120" rx="28"></rect>
        <path d="M27.9044446,23 L35.2467462,23 C37.3891938,23 39.9487464,24.2554248 41.2728934,25.9623388 L57.8387988,47.3168971 C59.3926294,49.3198885 59.3863791,52.3949472 57.8240697,54.4078832 L54.893486,58.1837531 C53.0318156,60.5823965 49.6947397,60.6142662 47.8234504,58.2254117 L24.972534,29.0543397 C22.8266189,26.3149029 24.4209763,23 27.9044446,23 Z M93.0955555,23 C96.5790238,23 98.1733811,26.3149029 96.0274659,29.0543397 L73.1765496,58.2254117 C71.3052603,60.6142662 67.9681844,60.5823965 66.106514,58.1837531 L63.1759303,54.4078832 C61.6136208,52.3949472 61.6073707,49.3198885 63.1612012,47.3168971 L79.7271067,25.9623388 C81.0512537,24.2554248 83.6108063,23 85.7532539,23 L93.0955555,23 Z M93.0955555,97 L85.7532539,97 C83.6108063,97 81.0512537,95.7445753 79.7271067,94.037661 L63.1612012,72.6831029 C61.6073707,70.6801115 61.6136208,67.6050528 63.1759303,65.5921168 L66.106514,61.8162469 C67.9681844,59.4176035 71.3052603,59.3857338 73.1765496,61.7745883 L96.0274659,90.94566 C98.1733811,93.6850973 96.5790238,97 93.0955555,97 Z M27.9044446,97 C24.4209763,97 22.8266189,93.6850973 24.972534,90.94566 L47.8234504,61.7745883 C49.6947397,59.3857338 53.0318156,59.4176035 54.893486,61.8162469 L57.8240697,65.5921168 C59.3863791,67.6050528 59.3926294,70.6801115 57.8387988,72.6831029 L41.2728934,94.037661 C39.9487464,95.7445753 37.3891938,97 35.2467462,97 L27.9044446,97 Z" id="Combined-Shape-Copy-26" fill="#FFFFFF" fill-rule="nonzero"></path>
    </g>
</svg>