<?xml version="1.0" encoding="UTF-8"?>
<svg width="127px" height="50px" viewBox="0 0 127 50" version="1.1" xmlns="http://www.w3.org/2000/svg" xmlns:xlink="http://www.w3.org/1999/xlink">
    <!-- Generator: Sketch 58 (84663) - https://sketch.com -->
    <title>Group 2</title>
    <desc>Created with Sketch.</desc>
    <g id="EARN" stroke="none" stroke-width="1" fill="none" fill-rule="evenodd">
        <g id="Earn-Step-01" transform="translate(-296.000000, -26.000000)">
            <g id="Group-2" transform="translate(296.000000, 26.000000)">
                <text id="Earn" font-family="Rubik-BoldItalic, Rubik" font-size="28" font-style="italic" font-weight="bold" fill="#000000">
                    <tspan x="61" y="33">Earn</tspan>
                </text>
                <g id="Group-8">
                    <rect id="Rectangle-Copy-7" fill="#F8E71C" x="0" y="0" width="51" height="50" rx="15"></rect>
                    <g id="noun_Avocado_1869247-Copy" transform="translate(11.000000, 9.000000)" fill="#000000" fill-rule="nonzero">
                        <g id="Group" transform="translate(0.000000, 0.235386)">
                            <path d="M25.7299715,0.133654286 C25.0276596,0.896881667 24.4405072,2.14946619 24.2875553,3.17958881 C23.5382261,3.02975548 22.6809948,3.12596619 22.0293439,3.26048405 C20.7728061,3.52472214 19.3949261,4.06980548 17.9622077,4.7752769 C15.1224969,6.17359833 12.1047742,8.18782333 9.81610341,9.85160071 C5.47214557,11.6124745 2.07356951,15.2863214 0.676861405,19.1138619 C-0.0267558919,21.0420988 -0.230622378,23.0337381 0.298524649,24.8261655 C0.827667892,26.618519 2.11792681,28.1857905 4.17649476,29.1855405 C10.3404715,31.2753464 15.080898,30.4681655 18.7070607,28.2142071 C22.4525564,25.7889 25.0775337,21.6927298 26.8176921,16.9977429 C27.6454931,14.550219 27.9814629,12.0961114 28.0000005,9.94412095 C28.0000005,7.59380429 27.4779888,5.25061024 25.7417921,3.88491262 C25.8067596,2.91568286 26.3457483,1.68081262 26.8649856,1.11657571 L25.7299715,0.133654286 Z M24.5358396,4.84462095 C24.9028099,5.03062095 25.3913834,5.38863405 25.5998964,5.95464238 C26.2776931,8.55362333 25.0126721,11.5122781 22.9515277,14.4768155 C20.8689445,17.4721536 18.0373915,20.3952321 15.9404412,22.8718 C13.0912748,26.176769 8.42624773,28.6536321 4.81492124,27.8323905 C3.11060627,26.9932869 2.16749059,25.814475 1.75274249,24.4096583 C1.33471762,22.9936226 1.47318897,21.3281107 2.09561384,19.6223726 C3.340456,16.2110071 6.53409476,12.7482924 10.4781785,11.1811686 C10.5370391,11.1575495 10.5928007,11.1261436 10.6437002,11.0886483 C12.8942531,9.44915429 15.9082034,7.44806738 18.6361034,6.10480786 C20.0000553,5.433215 21.2982526,4.92654952 22.3485515,4.70567452 C23.1508726,4.53056143 23.7980472,4.52934357 24.5358396,4.84462095 L24.5358396,4.84462095 Z M17.784858,7.07639952 C15.9533326,8.11349714 14.2152931,9.23776381 13.4694337,9.96726024 C13.1785326,10.2375876 13.1704731,10.7451757 13.4526715,11.0242126 C13.734851,11.3032864 14.2539218,11.3009983 14.5335283,11.019415 C14.9226866,10.6388531 16.7788596,9.35792571 18.5415504,8.35987333 C19.734271,7.74153405 20.8681991,7.00705548 22.1357666,6.77558881 C22.5164834,6.88453167 22.9642602,6.64490905 23.0756926,6.27254 C23.1871212,5.90024476 22.9421137,5.46225905 22.5614007,5.35331619 C20.8123012,5.24289714 19.1077445,6.33025905 17.784858,7.07639952 L17.784858,7.07639952 Z M6.69481097,15.112869 C9.21211314,13.2005602 12.5165748,13.5993531 15.2428969,15.4481857 C15.3546434,15.1908119 15.4621634,14.9351726 15.5739439,14.661856 C15.6685764,14.413856 15.9089034,14.2248519 16.1769202,14.1877626 C16.6992148,14.1245817 17.1703337,14.7297607 16.9690666,15.2053524 C16.2020319,17.0808048 15.4225774,18.6618352 14.4510235,20.0045428 C14.3947382,19.7056256 14.2624533,19.4225074 14.0554729,19.1546085 C13.7835644,18.8026718 13.481525,18.5685592 13.1493457,18.4522636 C12.8171663,18.3359679 12.4287148,18.3277829 11.9839793,18.4277084 C11.5392439,18.5276338 11.0002065,18.7346951 10.366851,19.0488984 C9.81077632,19.3063024 9.40739346,19.4537096 9.1566903,19.4911241 C8.90598715,19.5285387 8.7170469,19.4649392 8.58986389,19.3003237 C8.46268089,19.1357081 8.43456147,18.9605846 8.50550481,18.7749477 C8.57644815,18.5893108 8.7367557,18.4047425 8.98643227,18.2212374 C9.20044077,18.0639472 9.41503222,17.9707505 9.63021308,17.9416444 C9.84539393,17.9125383 10.0168648,17.9444794 10.144631,18.0374688 C10.2889636,18.091583 10.4294917,18.068395 10.5662193,17.9679041 L10.5662193,17.9679041 L11.814596,17.0503829 C11.8680981,17.0110603 11.8984295,16.959844 11.905591,16.8967324 C11.9127526,16.8336208 11.8965983,16.7765221 11.8571277,16.7254345 C11.6829704,16.5241461 11.4334847,16.3671024 11.1086634,16.2542986 C10.783842,16.1414947 10.4118838,16.1033884 9.99277774,16.1399785 C9.57367165,16.1765686 9.1416369,16.304986 8.69666054,16.5252345 L8.69666054,16.5252345 L8.22301585,15.9121866 C8.17477403,15.8497463 8.11449796,15.8139513 8.04218585,15.8048007 C7.96987374,15.7956501 7.90102298,15.815105 7.83563149,15.8631659 L7.83563149,15.8631659 L7.05984065,16.4333213 C7.00040778,16.4770315 6.96374205,16.5351283 6.94985629,16.6076318 C6.93597053,16.6801354 6.95314831,16.7476063 7.00139014,16.8100467 L7.00139014,16.8100467 L7.46187803,17.4060654 C6.92286401,17.9268212 6.60485982,18.4742551 6.50785594,19.0483834 C6.41085206,19.6225118 6.53996582,20.1394623 6.89520112,20.5992505 C7.29429262,21.1158026 7.77961921,21.3820713 8.35119546,21.3980645 C8.92277171,21.4140577 9.62082998,21.2258391 10.4453912,20.833403 C10.8769191,20.6319384 11.2123036,20.4900103 11.4515548,20.4076144 C11.6908059,20.3252185 11.8861028,20.2884757 12.0374512,20.297385 C12.1887996,20.3062942 12.310521,20.37035 12.4026191,20.4895543 C12.5298021,20.6541698 12.5418907,20.8477502 12.4388854,21.0703013 C12.3358801,21.2928524 12.1238742,21.5220921 11.8028615,21.7580274 C11.309453,22.1206685 10.8500085,22.2136089 10.4245143,22.0368514 C10.327156,22.01941 10.2489004,22.0146286 10.1897451,22.0225072 C10.1305899,22.0303858 10.0623728,22.0627243 9.98509199,22.1195235 L9.98509199,22.1195235 L8.79913418,22.9911687 C8.74563206,23.0304912 8.71271814,23.0813807 8.70039144,23.1438387 C8.68806475,23.2062967 8.70163649,23.2630686 8.74109206,23.3141675 C8.95912062,23.5722085 9.23898825,23.7625447 9.58071835,23.8851703 C9.6379846,23.9057196 9.69658959,23.9235979 9.75653336,23.9388051 C8.45704322,24.5918915 6.93470876,25.1431393 5.12234232,25.6354869 C4.73120124,25.7746548 4.24511368,25.5294964 4.13421476,25.1371619 C4.02331962,24.7447905 4.31165908,24.2902714 4.72035692,24.2131774 C5.00978989,24.1345702 5.27623259,24.0514976 5.54797259,23.970344 C3.40103816,21.3545714 4.00912286,17.364281 6.69481097,15.112869 Z" id="Shape"></path>
                        </g>
                    </g>
                </g>
            </g>
        </g>
    </g>
</svg>