<?xml version="1.0" encoding="UTF-8"?>
<svg width="505px" height="121px" viewBox="0 0 505 121" version="1.1" xmlns="http://www.w3.org/2000/svg" xmlns:xlink="http://www.w3.org/1999/xlink">
    <!-- Generator: Sketch 54.1 (76490) - https://sketchapp.com -->
    <title>uniswap</title>
    <desc>Created with Sketch.</desc>
    <g id="Page-1" stroke="none" stroke-width="1" fill="none" fill-rule="evenodd">
        <g id="uniswap" fill="#DC6BE5" fill-rule="nonzero">
            <g id="Path">
                <path d="M26.7485714,64.15 C30.1607143,64.3992857 33.5685714,64.7685714 36.985,64.8742857 C47.6807143,65.2028571 58.3807143,65.3978571 69.0764286,65.715 C73.5157143,65.8464286 76.3435714,68.4914286 76.4028571,72.3378571 C76.4628571,76.2221429 73.3228571,79.345 68.9192857,79.2557143 C53.3528571,78.9421429 37.7892857,78.46 22.2242857,78.0714286 C17.8242857,77.9614286 13.42,77.9971429 9.02,77.8864286 C2.96642857,77.735 0.562142857,75.3714286 0.695714286,69.2914286 C1.11928571,50.0357143 1.64,30.7821429 2.17642857,11.5285714 C2.29071429,7.43714286 4.91714286,4.69142857 8.72357143,4.37428571 C12.3971429,4.06928571 15.59,6.57714286 16.1142857,10.6021429 C16.4007143,12.8035714 15.9871429,15.09 15.9685714,17.3392857 C15.8771429,28.7592857 15.8092857,40.1807143 15.7521429,51.6014286 C15.7507143,51.9221429 15.9664286,52.245 16.2757143,53.1128571 C17.9642857,51.7307143 19.5435714,50.5642857 20.9807143,49.2421429 C34.0171429,37.25 47.0871429,25.2942857 60.0271429,13.1971429 C68.8221429,4.975 78.9878571,0.015 91.1292857,0.131428571 C102.514286,0.240714286 112.542857,4.10785714 120.627857,12.4092857 C122.869286,14.7107143 125.247857,16.885 127.396429,19.2685714 C130.677143,22.9085714 130.606429,26.2942857 127.392143,29.3 C124.986429,31.5485714 120.527143,31.3014286 117.657143,28.6278571 C115.308571,26.4392857 113.087143,24.1135714 110.81,21.8471429 C100.182143,11.2714286 83.9221429,10.585 72.7614286,20.545 C63.0064286,29.25 53.5328571,38.2685714 43.9178571,47.1314286 C39.1992857,51.4814286 34.46,55.8085714 29.6892857,60.1014286 C28.5485714,61.1285714 27.2442857,61.9735714 26.015,62.9021429 C26.2592857,63.3171429 26.5035714,63.7335714 26.7485714,64.15 Z"></path>
                <path d="M133.797143,66.9585714 C131.554286,68.8328571 129.51,70.4028571 127.621429,72.1428571 C114.41,84.3114286 101.165,96.445 88.0571429,108.725714 C73.72,122.158571 50.7464286,124.059286 34.7142857,112.448571 C29.9564286,109.003571 26.0164286,104.351429 22.0164286,99.9657143 C19.405,97.1028571 19.8707143,93.4278571 22.5092857,91.0335714 C25.2121429,88.5807143 28.9378571,88.7192857 31.7864286,91.39 C35.4278571,94.805 38.8107143,98.5535714 42.7485714,101.583571 C52.2314286,108.878571 67.685,108.277857 76.5271429,100.238571 C89.9914286,87.9964286 103.242143,75.5214286 116.581429,63.1407143 C118.905714,60.9828571 121.214286,58.8085714 124.175,56.0392857 C119.252857,55.6928571 115.18,55.28 111.097143,55.1428571 C101.231429,54.8121429 91.3592857,54.6264286 81.4914286,54.3514286 C76.6785714,54.2171429 73.7014286,51.7428571 73.6171429,47.8992857 C73.525,43.6571429 76.6564286,40.6821429 81.6914286,40.7807143 C101.792143,41.175 121.890714,41.655 141.987143,42.2235714 C146.870714,42.3614286 149.389286,45.0842857 149.285,50.0314286 C148.872143,69.6542857 148.367857,89.275 147.818571,108.894286 C147.706429,112.891429 145.138571,115.432143 141.404286,115.697857 C137.566429,115.971429 134.720714,113.947857 134.000714,110.002143 C133.601429,107.812143 133.737143,105.51 133.763571,103.26 C133.9,91.7214286 134.084286,80.1828571 134.229286,68.6442857 C134.235714,68.2228571 134.020714,67.7985714 133.797143,66.9585714 Z"></path>
            </g>
            <path d="M221.678392,27 L229,27 L229,67.3416507 C229,81.0268714 218.253769,89 205.5,89 C192.746231,89 182,81.0268714 182,67.3416507 L182,27 L189.321608,27 L189.321608,67.3416507 C189.321608,76.8618043 196.879397,82.0978887 205.5,82.0978887 C214.120603,82.0978887 221.678392,76.8618043 221.678392,67.3416507 L221.678392,27 Z M247.986842,60.6838046 L247.986842,88 L241,88 L241,42.5912597 L247.75,42.5912597 L247.75,49.6863753 L248.342105,49.6863753 C250.473684,45.0745501 254.736842,42 261.605263,42 C270.8125,42 277,47.5578406 277,59.1465295 L277,88 L270.013158,88 L270.013158,59.6195373 C270.013158,52.4948586 266.075658,48.2673522 259.592105,48.2673522 C252.901316,48.2673522 247.986842,52.7609255 247.986842,60.6838046 Z M290,88 L290,43 L297,43 L297,88 L290,88 Z M293,34 C290.261905,34 288,31.975 288,29.5 C288,27.025 290.261905,25 293,25 C295.738095,25 298,27.025 298,29.5 C298,31.975 295.738095,34 293,34 Z M341.172297,52.7732997 L334.905405,54.5491184 C333.693412,51.4118388 331.180743,48.0377834 325.091216,48.0377834 C319.533784,48.0377834 315.39527,50.8790932 315.39527,54.7858942 C315.39527,58.2783375 317.819257,60.0837531 323.199325,61.4156171 L329.939189,63.0730478 C338.038852,65.0560454 342,69.0516372 342,75.3853905 C342,83.2285894 334.816723,89 324.263514,89 C314.981419,89 308.625845,84.8860201 307,77.1612091 L313.621622,75.5037784 C314.863175,80.3872796 318.440034,82.8438287 324.14527,82.8438287 C330.648648,82.8438287 334.787162,79.6473552 334.787162,75.7405542 C334.787162,72.6032746 332.629223,70.4130982 328.047297,69.3476071 L320.47973,67.5717884 C312.143581,65.6183879 308.418919,61.4156171 308.418919,55.1410579 C308.418919,47.4458439 315.513514,42 325.091216,42 C334.077703,42 338.984797,46.3211587 341.172297,52.7732997 Z M361.843511,88 L348,43 L355.335878,43 L365.156489,77.453125 L365.629771,77.453125 L375.332061,43 L382.786259,43 L392.370229,77.3359375 L392.843511,77.3359375 L402.664122,43 L410,43 L396.156489,88 L389.293893,88 L379.354962,53.4296875 L378.645038,53.4296875 L368.706107,88 L361.843511,88 Z M432.361563,89 C423.801303,89 417,83.9221105 417,75.0653267 C417,64.6733668 426.117264,62.8134422 434.472313,61.7211055 C442.680782,60.6582915 446.081433,60.9535176 446.081433,57.5879397 L446.081433,57.3517588 C446.081433,51.535804 442.944626,48.1407035 436.583062,48.1407035 C429.986971,48.1407035 426.381108,51.6834171 424.856678,54.9899498 L418.289902,52.6281407 C421.807817,44.3618091 429.547231,42 436.348534,42 C442.094463,42 453,43.6532664 453,58.0603015 L453,87.9371859 L446.081433,87.9371859 L446.081433,81.7964824 L445.729642,81.7964824 C444.322475,84.7487437 440.218241,89 432.361563,89 Z M433.857143,83 C442.375661,83 447,77.3221476 447,71.52349 L447,65 C445.783068,66.4496644 437.629629,67.295302 434.587301,67.6577182 C428.989418,68.3825504 424,70.0738255 424,75.5100671 C424,80.4630873 428.137566,83 433.857143,83 Z M465,105 L465,41.6003752 L471.725664,41.6003752 L471.725664,48.9249531 L472.551623,48.9249531 C474.085546,46.5234521 476.79941,41 485.648968,41 C497.094395,41 505,50.2457786 505,64.7748593 C505,79.424015 497.094395,88.6697937 485.766962,88.6697937 C477.035398,88.6697937 474.085546,83.1463415 472.551623,80.6247655 L471.961652,80.6247655 L471.961652,105 L465,105 Z M472,65.3195876 C472,75.7835052 476.743243,83 485.378378,83 C494.378378,83 499,75.1821306 499,65.3195876 C499,55.5773196 494.5,48 485.378391,48 C476.621622,48 472,54.9759451 472,65.3195876 Z" id="Uniswap"></path>
        </g>
    </g>
</svg>